<?xml version="1.0" encoding="UTF-8"?> <svg xmlns="http://www.w3.org/2000/svg" width="496" height="550" viewBox="0 0 496 550" fill="none"><path d="M237.545 195.32C236.646 195.374 235.749 195.389 234.848 195.462C226.394 196.04 218.029 195.63 209.867 193.151C205.328 191.782 201.073 189.692 197.084 187.135C192.854 184.405 189.818 180.745 188.872 175.616C188.29 172.517 187.552 169.428 186.97 166.329C186.559 164.139 187.285 162.106 188.164 160.122C189.346 157.42 191.049 155.066 192.976 152.863C197.15 148.033 201.92 143.868 207.142 140.221C208.309 139.407 208.854 138.569 208.957 137.096C209.603 127.579 211.174 118.204 213.552 108.984C213.661 108.543 213.711 108.099 213.834 107.465C213.216 107.383 212.679 107.267 212.134 107.268C205.532 107.254 198.947 107.573 192.43 108.87C183.345 110.669 176.746 115.641 172.883 124.096C170.583 129.135 167.8 133.848 164.157 138.034C162.061 140.438 159.803 142.656 157.04 144.294C155.15 145.408 153.164 145.97 150.931 145.873C148.582 145.767 146.678 144.855 145.102 143.167C142.203 140.062 140.732 136.318 140.402 132.127C139.76 124.312 141.918 117.12 145.529 110.323C148.534 104.671 152.538 99.7706 157.152 95.3413C162.37 90.3505 168.683 87.7928 175.691 86.7248C186.792 85.0472 197.867 85.14 208.938 86.9658C212.595 87.5721 216.135 88.4818 219.756 89.8841C220.078 89.186 220.337 88.542 220.634 87.92C223.585 81.3685 226.836 74.9744 230.708 68.8962C234.168 63.4319 238.892 59.653 244.807 57.2233C252.646 54.0127 260.788 52.0503 269.152 50.8045C269.92 50.6829 270.686 50.5807 271.454 50.4592C271.514 50.4439 271.557 50.3884 271.801 50.2303C271.406 49.7547 271.032 49.2611 270.613 48.8423C264.489 42.8442 257.183 38.9836 248.911 36.964C235.89 33.7944 223.736 36.3137 212.325 42.9748C208.712 45.0786 205.581 47.8004 203.048 51.1483C201.483 53.2006 200.028 55.3579 198.555 57.4751C196.369 60.6135 194.071 63.6662 191.168 66.1898C188.741 68.3181 186.04 69.9014 182.727 70.2151C179.865 70.4823 177.328 69.7207 175.093 67.9869C171.215 64.9503 169.52 60.7809 169.113 56.02C168.561 49.4378 170.253 43.3435 173.92 37.9716C183.215 24.249 195.66 15.3233 212.672 13.7864C219.903 13.143 227.156 12.7543 234.392 13.4356C245.904 14.5132 256.892 17.5212 267.234 22.8016C276.954 27.7853 284.64 34.8469 289.764 44.5727C290.366 45.7054 291.028 46.8228 291.72 48.0592C294.407 47.7991 297.11 47.5792 299.797 47.2997C311.154 46.1463 322.53 45.8317 333.904 47.2114C337.94 47.7078 341.888 48.6265 345.793 49.8733C357.508 53.6138 367.619 60.2607 377.425 67.3537C384.45 72.4411 391.174 77.9359 397.922 83.3739C402.421 86.9992 406.33 91.2455 409.97 95.7262C410.813 96.7589 411.753 97.253 413.065 97.4227C419.05 98.1723 424.917 99.4978 430.73 101.034C435.242 102.226 438.787 104.733 441.503 108.506C444.005 111.992 446.256 115.733 447.571 119.759C448.855 123.685 448.832 127.909 445.987 131.547C444.277 133.726 442.21 135.431 439.763 136.721C436.591 138.368 433.221 139.496 429.753 140.344C429.377 140.435 429.018 140.546 428.483 140.684C428.72 141.187 428.902 141.648 429.148 142.035C435.268 151.441 439.458 161.705 443 172.314C449.537 191.915 454.703 211.888 460.186 231.785C464.054 245.824 467.584 259.957 470.087 274.29C471.296 281.23 472.013 288.252 472.71 295.273C473.573 304.097 473.926 312.964 473.735 321.831C473.539 330.756 473.557 339.697 473.225 348.613C472.966 355.664 472.492 362.72 471.787 369.74C471.457 373.067 470.469 376.328 469.695 379.604C468.26 385.638 466.768 391.668 465.294 397.7C465.077 398.581 464.803 399.438 464.47 400.291C459.082 414.131 455.161 428.424 452.16 442.938C450.039 453.208 448.553 463.602 448.362 474.124C448.22 482.567 448.941 490.913 450.541 499.224C451.812 505.837 452.906 512.477 453.862 519.126C454.583 524.143 454.619 529.189 453.471 534.192C451.48 542.895 445.451 546.952 437.664 547.459C432.304 547.805 426.925 547.585 421.579 546.88C418.338 546.439 415.268 545.504 412.354 544.015C406.958 541.242 402.078 537.785 397.634 533.657C387.65 524.37 379.378 513.723 372.344 502.072C368.505 495.708 366.572 488.815 366.349 481.418C366.158 475.796 366.142 470.167 365.951 464.544C365.821 460.835 365.2 457.189 363.546 453.821C362.541 451.764 361.164 450.012 358.76 449.026C358.437 450.581 358.141 452.021 357.847 453.442C356.35 460.64 353.271 467.085 349.256 473.251C345.632 478.84 340.916 483.067 335.343 486.456C328.529 490.595 321.238 493.493 313.244 494.453C304.877 495.465 296.49 495.93 288.052 495.438C285.472 495.296 282.912 494.864 280.343 494.568C279.84 494.513 279.313 494.535 278.729 494.533C278.348 495.246 277.989 495.922 277.63 496.598C274.262 503.257 270.503 509.674 266.184 515.74C264.953 517.465 263.552 519.12 262.118 520.695C257.647 525.582 252.213 527.812 245.557 526.645C242.228 526.062 238.967 525.347 235.822 524.095C231.52 522.392 228.635 519.366 227.027 515.066C225.504 510.948 224.987 506.647 224.647 502.319C223.95 493.351 223.33 484.388 222.77 475.41C222.696 474.236 222.255 473.582 221.346 472.934C213.85 467.619 206.311 462.359 198.965 456.841C193.433 452.676 188.158 448.178 182.776 443.829C181.264 442.613 179.69 441.451 178.24 440.181C175.579 437.853 172.347 436.731 169.069 435.703C164.819 434.374 160.871 435.403 157.204 437.717C155.41 438.857 153.721 440.181 151.995 441.462C147.126 445.094 141.726 446.84 135.621 446.14C129.727 445.475 125.247 442.708 122.588 437.283C120.49 433.027 119.639 428.488 119.483 423.764C119.257 417.244 120.801 411.042 122.938 404.979C124.862 399.466 127.372 394.207 130.24 389.13C132.574 384.989 135.389 381.213 138.613 377.719C145.292 370.494 151.935 363.226 158.614 356.001C163.248 351.008 168.099 346.245 173.601 342.209C179.885 337.565 186.812 334.31 194.528 332.863C201.711 331.516 208.318 332.834 214.158 337.333C219.11 341.146 221.691 346.292 222.154 352.479C222.349 354.985 221.773 357.379 220.643 359.618C219.875 361.122 218.978 362.539 218.117 363.979C217.281 365.361 216.35 366.699 215.588 368.125C213.433 372.201 213.437 376.33 215.706 380.364C217.316 383.242 219.295 385.854 221.66 388.239C228.372 395.019 235.551 401.246 243.282 406.831C243.802 407.198 244.321 407.566 244.878 407.955C254.363 398.199 263.014 387.84 271.476 377.116C271.21 376.747 270.85 376.313 270.573 375.826C269.348 373.852 268.002 371.927 266.979 369.849C265.718 367.268 265.365 364.517 266.671 361.726C263.51 358.467 260.367 355.229 257.114 351.905C256.834 352.002 256.476 352.113 256.135 352.245C254.152 353.041 252.138 352.881 250.292 351.973C245.719 349.706 241.948 346.54 239.604 341.897C238.646 339.999 238.102 338.033 238.942 336.047C237.078 334.3 235.266 332.635 233.495 330.953C232.764 330.259 232.026 329.955 230.931 330.014C225.225 330.297 219.844 328.986 215.036 325.884C209.259 322.169 204.992 317.178 202.563 310.698C202.252 309.858 201.942 308.999 201.632 308.14C201.034 306.384 200.068 304.876 198.632 303.685C198.375 303.472 198.156 303.262 197.919 303.031C196.241 301.395 195.202 299.55 196.292 297.055C195.826 296.75 195.419 296.449 194.989 296.185C191.975 294.455 189.384 292.229 187.134 289.599C185.208 287.341 183.805 284.848 183.73 281.746C183.712 281.16 183.155 280.498 182.721 280.02C179.145 276.011 175.424 272.129 171.952 268.03C169.865 265.566 167.947 262.92 166.269 260.173C161.748 252.69 160.441 244.653 163.476 236.335C166.102 229.138 171.183 224.157 178.542 221.692C182.869 220.242 187.382 219.759 191.917 219.531C197.957 219.213 203.948 219.593 209.94 220.246C216.511 220.958 223.096 221.204 229.722 221.142C232.51 221.103 235.288 221.2 238.07 221.239C241.687 221.316 245.284 221.12 248.845 220.61C245.053 212.165 241.315 203.802 237.545 195.32ZM438.776 284.799C438.947 284.869 439.117 284.939 439.268 285.008C439.015 286.12 438.838 287.257 438.49 288.343C436.656 294.232 434.143 299.821 431.137 305.2C422.745 320.213 412.94 334.27 401.873 347.44C393.078 357.907 384.102 368.185 373.899 377.345C366.439 384.049 358.415 389.895 349.294 394.165C348.911 394.353 348.561 394.62 348.134 394.883C353.101 402.669 356.055 411.114 357.929 419.97C359.783 428.824 359.973 437.796 359.094 446.752C362.966 448.191 365.308 450.906 366.814 454.439C368.336 458.012 368.871 461.788 369.012 465.615C369.226 470.908 369.263 476.227 369.458 481.519C369.714 488.158 371.379 494.429 374.815 500.161C381.758 511.708 389.96 522.253 399.853 531.456C404.113 535.415 408.749 538.758 413.964 541.323C415.414 542.028 416.928 542.66 418.476 543.08C425.071 544.846 431.83 544.831 438.53 544.268C444.094 543.8 448.347 540.903 450.025 535.295C450.785 532.777 451.322 530.108 451.329 527.499C451.357 523.762 450.997 519.997 450.438 516.297C449.261 508.619 447.651 501.009 446.571 493.338C445.109 483.05 444.858 472.711 446.263 462.37C447.065 456.467 447.848 450.562 448.861 444.713C451.317 430.473 455.937 416.774 460.038 402.961C462.356 395.158 465.019 387.437 466.745 379.456C468.15 373.011 469.555 366.565 469.786 359.921C469.916 355.84 470.22 351.772 470.31 347.688C470.469 340.961 470.473 334.223 470.651 327.497C470.854 319.857 471.056 312.237 470.675 304.596C470.19 295.097 469.608 285.591 467.986 276.208C466.488 267.554 464.871 258.93 462.545 250.412C455.631 225.079 448.956 199.664 440.869 174.658C437.122 163.081 432.546 151.932 425.92 141.693C422.826 136.919 419.672 132.161 416.598 127.389C415.667 125.941 414.336 125.205 412.713 124.741C404.483 122.393 396.05 121.57 387.559 121.56C379.478 121.541 371.384 121.715 363.302 121.987C352.955 122.354 342.616 122.878 332.276 123.42C329.715 123.553 327.156 123.939 324.665 124.193C324.566 124.498 324.5 124.61 324.51 124.747C324.687 131.4 320.689 137.333 314.434 139.603C312.435 140.34 310.388 140.936 308.354 141.612C300.458 144.235 292.867 147.521 285.992 152.259C285.297 152.737 284.566 153.153 283.819 153.529C280.309 155.27 277.379 154.832 274.637 151.991C270.806 148.023 268.492 143.226 267.409 137.834C267.265 137.103 267.221 136.34 267.113 135.379C260.478 137.524 254.111 139.728 248.211 143.054C248.309 143.334 248.298 143.489 248.391 143.554C252.117 146.521 253.68 150.623 254.594 155.108C255.526 159.594 254.532 163.517 250.936 166.479C247.587 169.244 244.186 171.927 240.677 174.486C238.112 176.352 235.155 176.865 231.802 176.086C235.23 183.59 238.599 190.836 241.885 198.155C245.171 205.474 248.357 212.824 251.549 220.098C258.289 219.517 272.382 214.037 276.667 210.422C275.381 207.917 274.573 205.271 274.281 202.485C273.954 199.365 275.147 196.781 277.51 194.745C279.041 193.45 280.872 193.169 282.819 193.461C283.493 193.567 284.212 193.87 284.041 194.637C283.959 194.982 283.17 195.394 282.704 195.381C279.673 195.286 278.028 197.079 277.055 199.582C275.745 202.996 276.352 206.291 278.037 209.486C278.985 208.734 278.985 208.734 279.087 207.553C279.479 203.627 282.333 202.074 285.081 203.162C288.361 204.443 291.148 206.644 292.641 210.078C293.144 211.243 293.39 212.448 293.052 213.671C292.87 214.321 292.509 215.308 292.033 215.431C290.723 215.787 289.939 216.686 289.024 217.518C288.586 217.935 288.005 218.167 287.414 218.535C289.449 220.625 291.825 218.96 293.939 219.361C293.737 220.574 292.988 220.989 292.206 221.305C289.803 222.247 287.652 221.259 285.548 220.157C277.002 226.512 266.834 228.489 256.882 231.279C260.301 237.536 262.865 244.025 265.289 250.583C268.283 258.738 270.581 267.097 272.859 275.456C274.375 281.073 275.791 286.723 276.99 292.415C278.601 300.006 279.917 307.655 281.428 315.278C282.467 320.472 283.743 325.625 284.721 330.854C284.978 332.197 285.505 333.013 286.521 333.804C294.195 339.638 301.804 345.565 309.52 351.363C314.498 355.099 319.157 359.203 323.563 363.601C323.963 363.999 324.386 364.36 324.845 364.762C325.349 364.232 325.747 363.832 326.148 363.392C333.559 355.166 340.529 346.559 347.149 337.674C350.716 332.899 353.947 327.905 356.9 322.717C364.54 309.268 370.386 295.012 374.903 280.274C379.822 264.239 383.343 247.854 385.848 231.261C385.959 230.509 385.975 229.712 386.725 229.297C387.685 229.5 387.673 230.22 387.688 230.844C387.688 231.682 387.648 232.536 387.512 233.364C386.393 240.452 385.369 247.567 384.058 254.623C382.869 261.044 381.525 267.455 379.915 273.769C376.561 286.914 371.763 299.549 366.017 311.825C362.148 320.085 357.789 328.115 352.457 335.572C346.24 344.271 339.561 352.606 332.533 360.645C329.548 364.059 326.546 367.452 323.453 370.741C320.298 374.084 316.942 377.238 313.806 380.583C312.142 382.375 310.585 384.311 309.272 386.381C307.478 389.196 307.95 391.079 310.658 393.021C311.436 393.582 312.298 394.071 313.164 394.502C315.631 395.706 318.227 396.453 320.945 396.857C326.689 397.706 332.303 397.086 337.833 395.428C349.131 392.05 359.082 386.203 367.934 378.545C373.303 373.896 378.515 368.982 383.431 363.854C394.964 351.826 405.265 338.758 415.141 325.349C421.834 316.254 427.593 306.588 432.698 296.526C434.189 293.592 435.473 290.547 436.89 287.549C437.351 286.53 437.796 285.451 438.776 284.799ZM286.854 381.113C288.161 382.762 289.38 384.269 290.557 385.812C295.689 392.637 299.807 400.033 302.29 408.25C304.091 414.238 302.924 419.785 299.188 424.762C296.997 427.686 294.104 429.509 290.445 430.032C287.789 430.411 285.14 430.421 282.51 429.867C276.216 428.531 270.115 426.663 264.337 423.786C249.679 416.451 236.856 406.537 224.875 395.456C223.979 394.614 223.127 393.717 222.187 392.95C218.451 389.846 215.417 386.167 213.002 381.986C211.735 379.775 211.027 377.369 210.955 374.773C210.877 371.438 211.753 368.383 213.47 365.543C214.746 363.451 216.098 361.384 217.338 359.25C218.952 356.5 219.259 353.503 218.579 350.417C217.496 345.57 214.819 341.8 210.645 339.112C205.63 335.899 200.208 335.189 194.437 336.382C187.343 337.853 180.975 340.913 175.2 345.242C169.836 349.249 165.089 353.922 160.577 358.845C154.231 365.763 147.903 372.701 141.52 379.597C138.024 383.365 134.992 387.457 132.533 391.978C129.987 396.649 127.761 401.46 126.008 406.479C124.158 411.764 122.789 417.14 122.822 422.79C122.847 427.447 123.624 431.941 125.785 436.124C127.569 439.579 130.379 441.723 134.122 442.51C138.575 443.445 142.961 443.109 146.888 440.696C149.412 439.139 151.762 437.278 154.018 435.371C156.44 433.321 158.681 431.082 160.975 428.905C162.247 427.709 163.5 426.492 164.698 425.232C168.084 421.651 171.668 418.299 175.669 415.404C180.017 412.261 184.88 411.511 190.062 412.048C194.258 412.478 198.084 414.012 201.671 416.191C206.174 418.92 210.397 422.02 214.365 425.433C218.774 429.227 223.201 433.042 227.481 437.003C235.22 444.146 244.006 449.668 253.424 454.241C263.99 459.382 275.161 462.558 286.798 464.073C292.087 464.754 297.402 464.503 302.678 463.684C312.405 462.163 321.264 458.576 328.715 452.008C332.908 448.309 336.497 444.042 339.533 439.346C342.089 435.377 343.773 431.074 344.623 426.44C345.605 421.017 345.282 415.619 344.609 410.197C344.312 407.761 343.798 405.369 342.849 403.063C342.441 403.053 342.131 403.032 341.816 403.068C338.917 403.313 336.027 403.696 333.121 403.765C327.348 403.887 321.785 402.953 316.743 399.854C314.875 398.711 312.857 397.771 311.012 396.591C309.614 395.694 308.243 394.683 307.08 393.492C305.443 391.839 305.104 389.731 305.763 387.538C306.094 386.431 306.562 385.315 307.23 384.388C308.443 382.642 309.732 380.921 311.166 379.347C313.927 376.346 316.798 373.45 319.632 370.513C319.968 370.166 320.251 369.738 320.592 369.314C320.045 368.789 319.59 368.328 319.115 367.886C312.309 361.607 305.208 355.657 297.807 350.096C280.674 337.212 263.818 323.979 247.92 309.585C243.947 305.977 239.743 302.586 235.917 298.813C232.182 295.144 228.382 291.548 224.416 288.116C216.833 281.529 209.418 274.778 202.696 267.297C199.262 263.493 196.072 259.531 193.707 254.925C191.461 250.561 191.727 246.471 194.46 242.475C196.194 239.967 198.435 238.001 201.19 236.752C203.604 235.655 206.085 234.699 208.645 234.021C214.876 232.373 221.298 232.16 227.689 231.828C231.364 231.637 235.089 231.566 238.694 230.981C247.502 229.513 256.223 227.611 264.704 224.698C272.426 222.044 278.925 217.669 283.941 211.106C283.738 210.118 283.265 209.364 282.247 208.884C278.362 212.917 273.693 215.628 268.654 217.788C258.437 222.137 247.786 224.06 236.676 223.907C224.768 223.756 212.861 223.585 200.978 222.521C200.34 222.457 199.681 222.41 199.038 222.404C193.207 222.25 187.417 222.605 181.682 223.859C170.349 226.338 162.476 237.551 165.062 250.137C166.239 255.867 169.297 260.599 172.728 265.007C176.464 269.786 180.922 273.993 185.029 278.487C185.59 279.091 186.137 279.071 186.92 279.009C188.506 278.886 190.138 278.942 191.745 279.073C194.147 279.261 196.106 280.488 198.146 281.683C200.484 283.054 202.185 284.906 203.263 287.318C204.763 290.656 206.005 294.054 205.083 297.767C206.442 299.226 207.772 300.545 208.997 301.956C210.17 303.284 211.462 303.472 212.994 302.722C213.639 302.416 214.299 302.17 214.963 301.866C217.958 300.537 221.067 299.8 224.336 299.562C232.911 298.915 241.661 304.687 244.398 312.883C244.574 313.441 244.749 313.998 244.845 314.57C245.266 317.189 245.606 319.842 245.148 322.498C244.449 326.636 243.336 330.59 238.922 332.715C239.807 333.42 240.546 333.997 241.34 334.618C245.149 332.508 248.702 333.224 252.01 335.481C254.595 337.239 256.965 339.274 258.835 341.762C261.349 345.092 262.589 348.801 261.646 353.098C262.778 354.17 263.945 355.304 265.115 356.398C266.285 357.493 267.455 358.587 268.589 359.64C273.177 357.527 274.861 358.501 278.139 361.769C281.561 365.182 283.936 369.38 286.211 373.609C287.454 375.877 287.998 378.408 286.854 381.113ZM345.835 402.414C345.856 402.669 345.858 402.922 345.919 403.16C347.091 407.02 347.671 410.976 347.876 415.002C348.138 420.454 348.031 425.88 346.281 431.132C342.527 442.477 335.181 451.175 325.526 457.784C314.012 465.645 300.913 468.04 287.157 466.747C280.191 466.104 273.369 464.517 266.705 462.337C251.892 457.484 238.37 450.345 226.694 439.908C222.972 436.59 219.251 433.273 215.507 429.992C211.177 426.184 206.7 422.54 201.79 419.51C199.606 418.149 197.301 416.859 194.908 415.99C187.726 413.424 180.894 413.92 174.882 419.128C172.975 420.786 171.086 422.446 169.197 424.125C168.886 424.395 168.665 424.769 168.365 425.157C171.355 426.126 172.588 426.874 174.677 429.026C179.328 433.811 183.979 438.596 188.59 443.398C193.492 448.493 198.585 453.367 204.417 457.417C212.329 462.916 220.152 468.566 228.192 473.9C236.418 479.363 245.293 483.626 254.702 486.659C261.615 488.896 268.716 490.385 275.888 491.432C280.861 492.169 285.914 492.601 290.948 492.738C295.652 492.873 300.402 492.621 305.105 492.209C309.611 491.823 314.175 491.441 318.539 490.305C327.01 488.093 334.64 484.245 341.13 478.058C347.576 471.926 351.955 464.734 354.301 456.251C356.096 449.794 356.792 443.182 356.755 436.48C356.682 424.712 354.094 413.528 349.553 402.713C349.387 402.312 349.14 401.944 348.915 401.539C348.005 401.748 347.194 401.925 346.381 402.122C346.222 402.169 346.077 402.295 345.835 402.414ZM215.063 113.841C215.214 113.91 215.345 113.978 215.496 114.047C215.717 113.946 215.939 113.844 216.143 113.703C224.392 108.262 233.241 103.973 242.244 100.006C253.939 94.8451 266.152 91.2003 278.569 88.2515C299.284 83.3316 320.206 80.1791 341.585 80.7977C348.447 80.9854 355.302 81.27 362.12 81.8051C367.408 82.2139 372.648 83.0282 377.915 83.7471C384.068 84.5864 390.185 85.6762 396.183 87.3615C396.908 87.568 397.637 87.7358 398.364 87.923C398.083 87.2023 397.686 86.7461 397.208 86.3426C394.689 84.2189 392.172 82.0565 389.608 80.0076C379.188 71.6642 368.529 63.6741 356.831 57.1694C352.445 54.7204 347.98 52.5775 342.913 51.5026C335.909 50.0196 328.871 49.2937 321.74 49.0483C314.299 48.8006 306.864 49.2934 299.453 50.0021C297.354 50.2059 295.276 50.4111 293.197 50.6163C293.211 50.9679 293.183 51.1022 293.233 51.2225C293.413 51.7026 293.633 52.1853 293.834 52.6473C295.705 57.0822 297.14 61.6228 297.859 66.3861C298.218 68.7677 298.363 71.1538 297.595 73.4955C297.026 75.228 295.846 76.5087 294.126 76.8753C290.962 77.5693 287.231 75.77 285.988 72.6644C283.297 66.03 279.813 59.8659 275.358 54.2377C274.463 53.104 273.587 52.8285 272.23 53.0063C265.35 53.9273 258.59 55.3437 251.98 57.4133C248.395 58.5453 244.909 59.9375 241.627 61.7529C238.973 63.2226 236.663 65.067 235.004 67.6192C232.864 70.936 230.667 74.2295 228.752 77.6595C223.525 86.9537 219.889 96.9044 216.916 107.116C216.232 109.366 215.667 111.605 215.063 113.841ZM236.529 192.873C233.881 186.728 231.317 180.784 228.718 174.779C226.397 173.994 224.752 172.185 223.417 170.105C221.995 167.883 221.468 165.392 222.307 162.86C222.897 161.11 223.757 159.398 224.761 157.852C226.596 155 229.112 152.722 231.752 150.609C239.429 144.427 247.922 139.665 257.091 136.1C268.162 131.791 279.597 128.695 291.227 126.412C309.987 122.719 328.951 120.559 348.05 119.81C362.794 119.225 377.526 118.541 392.284 118.892C399.827 119.069 407.223 120.248 414.453 122.409C417.564 123.328 420.579 124.493 423.361 126.206C425.395 127.478 426.951 129.164 427.907 131.373C428.377 132.458 428.522 133.442 427.466 134.342C426.802 134.919 426.283 135.661 425.647 136.396C426.051 137.028 426.455 137.66 426.878 138.293C431.113 137.323 435.055 136.099 438.717 134.135C440.922 132.965 442.805 131.383 444.142 129.256C446.003 126.309 445.882 123.302 443.635 120.632C442.736 119.557 441.613 118.621 440.485 117.764C437.71 115.68 434.528 114.387 431.299 113.226C416.936 108.074 402.021 105.531 386.87 104.394C379.334 103.828 371.777 103.28 364.2 104.133C360.922 104.507 357.609 104.529 354.345 104.982C347.737 105.903 341.173 107.021 334.581 108.001C319.527 110.221 304.574 112.953 289.794 116.555C273.111 120.627 256.719 125.557 241.029 132.698C226.325 139.382 213 148.071 201.315 159.211C198.936 161.479 196.81 164.038 194.704 166.578C193.769 167.701 193.088 169.075 192.469 170.414C191.071 173.413 191.452 176.322 193.085 179.143C194.265 181.212 195.88 182.902 197.835 184.188C202.619 187.347 207.738 189.905 213.265 191.343C220.824 193.255 228.504 193.714 236.529 192.873ZM407.047 96.5929C405.257 94.3449 403.937 92.3246 401.335 91.6558C398.963 91.042 396.655 90.0821 394.276 89.5652C388.328 88.2923 382.375 87.0776 376.387 86.0941C371.227 85.2464 366.015 84.5898 360.793 84.0689C352.03 83.2224 343.223 82.9961 334.415 83.0812C330.341 83.1274 326.248 83.1723 322.195 83.4926C309.289 84.5181 296.544 86.5871 283.856 89.2249C263.304 93.494 243.706 100.264 225.347 110.471C222.41 112.096 219.557 113.902 216.671 115.629C215.086 116.569 214.119 117.865 213.812 119.752C213.176 123.836 212.404 127.911 211.71 131.991C211.416 133.685 211.219 135.385 210.92 137.428C211.729 136.998 212.233 136.76 212.702 136.462C217.073 133.827 221.357 131.05 225.834 128.578C233.836 124.152 242.28 120.652 250.918 117.712C270.23 111.136 289.883 105.811 309.799 101.458C325.522 98.02 341.37 95.8564 357.477 95.8337C362.132 95.8281 366.794 95.7256 371.438 95.6024C379.846 95.3919 388.265 95.3184 396.659 95.8665C399.955 96.0775 403.248 96.3272 407.047 96.5929ZM232.827 16.5979C226.199 16.1345 219.611 16.4917 213.031 17.0054C204.003 17.7179 195.847 20.731 188.822 26.4913C185.93 28.8597 183.16 31.4315 180.612 34.1746C176.4 38.7099 173.367 43.9313 172.348 50.1505C171.804 53.4622 171.866 56.7578 173.047 59.9175C173.574 61.2981 174.278 62.6522 175.19 63.8066C178.051 67.4537 182.053 68.162 186.085 65.9122C188.437 64.5965 190.376 62.7651 192.023 60.6601C194.012 58.1117 195.91 55.4789 197.733 52.802C200.556 48.637 203.746 44.7898 207.953 42.0068C210.852 40.0868 213.932 38.3742 217.074 36.8995C223.678 33.7974 230.731 32.3626 237.975 32.3822C249.054 32.4168 259.093 35.9038 268.044 42.4112C272.437 45.6007 276.218 49.4485 278.927 54.1562C282.433 60.2828 285.656 66.5455 289.021 72.7401C289.158 73.0029 289.372 73.2905 289.614 73.4438C290.994 74.3193 292.567 74.663 294.069 74.0669C295.392 73.5362 295.376 72.0939 295.423 70.8702C295.452 69.8985 295.463 68.9061 295.294 67.9789C294.904 65.751 294.495 63.5217 293.888 61.337C292.72 57.1655 290.891 53.24 288.942 49.3645C284.495 40.5429 278.463 33.2269 269.922 28.092C258.502 21.2367 246.027 17.7741 232.827 16.5979ZM254.629 231.745C254.117 231.826 253.607 231.888 253.113 231.989C247.778 233.077 242.378 233.712 236.942 234.033C231.075 234.382 225.192 234.672 219.32 235.099C214.466 235.441 209.678 236.236 205.099 237.941C202.28 238.99 199.706 240.427 197.585 242.635C193.866 246.523 193.385 250.891 196.424 255.329C198.068 257.723 199.874 260.03 201.765 262.227C210.083 271.942 219.513 280.528 229.279 288.748C229.555 288.981 229.893 289.161 230.153 289.335C236.171 286.834 241.374 283.44 245.499 278.489C253.959 268.35 258.456 256.668 259.067 243.487C259.095 242.807 258.992 242.041 258.744 241.42C257.411 238.191 256.018 234.997 254.629 231.745ZM218.769 92.3078C216.652 91.6729 214.735 90.9546 212.741 90.5036C206.278 89.0779 199.729 88.3084 193.105 88.3515C186.948 88.3884 180.833 88.6619 174.757 89.7755C169.785 90.6937 165.095 92.3133 161.184 95.6038C154.543 101.177 149.322 107.881 145.957 115.903C143.783 121.087 142.529 126.492 143.106 132.16C143.416 135.259 144.444 138.096 146.417 140.513C148.55 143.155 151.328 143.816 154.391 142.336C155.722 141.689 156.951 140.821 158.089 139.868C160.942 137.497 163.341 134.666 165.238 131.488C167.181 128.215 168.881 124.79 170.617 121.406C174.649 113.605 180.907 108.493 189.425 106.44C193.427 105.473 197.555 104.924 201.671 104.55C205.964 104.149 210.303 104.199 214.853 104.031C216.081 100.397 217.343 96.551 218.769 92.3078ZM247.19 409.714C248.692 410.793 249.84 411.632 251.013 412.416C259.295 417.902 267.808 422.88 277.499 425.505C280.805 426.398 284.082 427.445 287.563 427.513C292.639 427.615 296.681 425.794 298.999 421.049C299.68 419.675 300.059 418.143 300.436 416.651C301.223 413.473 300.3 410.526 299.221 407.568C295.531 397.397 289.727 388.5 282.988 380.142C282.79 379.914 282.53 379.74 282.309 379.549C279.01 381.616 276.064 380.573 273.066 378.61C265.539 389.886 256.55 399.793 247.19 409.714ZM275.579 494.176C266.533 492.648 257.764 491.041 249.377 487.884C240.971 484.725 233 480.624 225.14 475.497C225.292 477.222 225.398 478.495 225.503 479.768C226.127 487.563 226.691 495.373 227.412 503.155C227.756 506.879 228.235 510.613 229.563 514.173C230.923 517.851 233.354 520.397 237.053 521.805C240.658 523.167 244.368 523.874 248.177 524.258C252.2 524.656 255.651 523.495 258.472 520.751C260.56 518.736 262.524 516.555 264.226 514.22C268.553 508.311 272.06 501.895 275.172 495.258C275.29 494.974 275.389 494.669 275.579 494.176ZM442.487 115.313C441.91 113.267 440.702 111.605 439.553 109.928C437.343 106.716 434.379 104.541 430.596 103.498C423.662 101.572 416.636 100.107 409.487 99.2953C400.927 98.3267 392.342 97.7263 383.728 97.8056C373.322 97.8959 362.909 98.0831 352.497 98.2703C342.708 98.4427 333.001 99.3999 323.375 101.142C301.637 105.094 280.296 110.613 259.278 117.362C247.326 121.18 235.357 124.959 224.671 131.846C220.367 134.622 215.908 137.115 211.59 139.831C205.66 143.584 200.228 148.015 195.559 153.239C193.637 155.383 192.004 157.84 190.451 160.282C188.656 163.117 188.825 166.264 189.558 169.704C190.421 168.226 191.005 166.845 191.919 165.741C194.346 162.794 196.754 159.827 199.454 157.134C205.209 151.421 211.612 146.474 218.355 141.96C231.144 133.409 245.109 127.257 259.58 122.232C281.655 114.583 304.49 109.968 327.426 105.885C337.246 104.137 347.129 102.9 357.079 102.369C363.609 102.008 370.125 101.84 376.67 101.538C381.536 101.314 386.382 101.36 391.216 101.854C392.898 102.03 394.556 102.263 396.219 102.438C404.726 103.325 413.162 104.674 421.389 107.061C428.581 109.199 435.993 110.984 442.487 115.313ZM261.273 247.867C261.154 247.898 261.036 247.909 260.936 247.941C260.903 248.134 260.852 248.305 260.819 248.498C259.728 258.821 256.151 268.192 250.22 276.697C245.847 282.973 240.538 288.153 233.287 291.034C233.067 291.116 232.916 291.32 232.668 291.536C241.962 299.548 251.591 306.94 261.38 314.285C266.26 311.335 271.112 308.519 275.401 304.827C276.127 304.196 276.367 303.55 276.121 302.618C275.84 301.625 275.677 300.6 275.496 299.575C272.492 282.655 267.7 266.234 262.137 249.992C261.856 249.271 261.555 248.569 261.273 247.867ZM321.478 124.652C306.742 125.666 276.549 131.618 269.587 134.812C269.556 134.985 269.484 135.174 269.51 135.352C269.603 135.981 269.673 136.648 269.844 137.264C270.92 141.098 272.499 144.694 274.784 147.951C275.402 148.851 276.163 149.664 276.926 150.457C278.398 151.962 280.163 152.339 282.06 151.4C283.451 150.718 284.791 149.936 286.079 149.072C289.798 146.566 293.672 144.364 297.837 142.727C302.704 140.808 307.605 138.95 312.554 137.251C317.382 135.602 320.037 132.166 321.246 127.42C321.46 126.579 321.406 125.679 321.478 124.652ZM198.95 298.312C198.607 299.593 199.391 300.349 200.166 300.968C202.656 302.953 203.832 305.645 204.892 308.582C208.414 318.371 215.156 324.724 225.483 326.887C229.686 327.766 233.755 327.232 237.392 324.799C242.193 321.59 243.409 315.891 240.303 311.019C238.424 308.084 235.961 305.711 232.905 304.017C231.835 303.436 230.66 302.983 229.49 302.726C225.25 301.807 221.12 302.375 217.134 303.966C215.872 304.462 214.659 305.097 213.399 305.574C211.198 306.413 209.196 306.079 207.505 304.363C206.904 303.757 206.364 303.135 205.763 302.528C204.762 301.523 203.804 300.463 202.741 299.512C201.694 298.621 200.465 298.087 198.95 298.312ZM245.517 144.541C238.28 148.884 232.263 154.17 228.36 161.531C227.53 163.089 227.109 164.929 226.811 166.681C226.578 168.067 226.698 169.692 227.937 170.635C232.212 173.836 235.292 174.908 239.757 171.773C242.726 169.702 245.607 167.489 248.469 165.274C249.376 164.558 250.233 163.722 250.883 162.775C251.489 161.902 252.09 160.834 252.181 159.808C252.628 154.815 251.208 150.333 247.909 146.539C247.299 145.795 246.439 145.287 245.517 144.541ZM276.643 306.004C272.979 310.5 268.446 313.221 263.826 316.072C269.83 320.718 275.592 325.211 281.375 329.686C281.476 329.634 281.598 329.565 281.699 329.514C280.054 321.842 278.408 314.19 276.643 306.004ZM240.838 338.458C242.811 343.932 246.792 347.444 251.844 349.842C253.201 350.482 254.796 350.516 256.011 349.296C257.183 348.131 256.994 346.657 256.525 345.281C255.285 341.572 252.829 338.81 249.481 336.842C246.524 335.117 243.076 335.421 240.838 338.458ZM281.227 374.702C281.176 374.309 281.137 373.469 280.941 372.656C280.161 369.33 278.616 366.359 276.504 363.699C275.877 362.915 275.072 362.177 274.213 361.65C271.88 360.201 268.997 361.597 268.69 364.321C268.581 365.326 268.7 366.406 269.003 367.362C270.141 370.869 272.151 373.872 274.881 376.322C275.65 377.019 276.743 377.543 277.758 377.789C279.997 378.355 281.074 377.437 281.227 374.702ZM186.002 282.119C186.518 283.362 186.808 284.512 187.424 285.451C189.975 289.349 193.365 292.391 197.499 294.549C197.725 294.663 197.971 294.758 198.218 294.853C199.32 295.242 200.054 295.059 200.381 293.991C200.686 292.981 200.845 291.823 200.644 290.796C199.881 286.945 197.627 284.081 194.079 282.469C191.664 281.346 189.063 280.95 186.002 282.119ZM260.617 317.114C260.553 317.207 260.488 317.3 260.423 317.392C261.01 317.901 261.577 318.427 262.166 318.917C271.666 326.494 281.101 334.165 290.706 341.634C300.57 349.296 310.541 356.809 319.513 365.538C320.297 366.294 321.082 367.05 321.939 367.889C322.339 367.45 322.656 367.102 323.036 366.68C322.564 366.18 322.186 365.744 321.767 365.326C317.256 360.765 312.406 356.608 307.26 352.763C304.669 350.829 302.1 348.857 299.55 346.887C287.24 337.438 274.932 327.969 262.603 318.519C261.955 318.045 261.266 317.588 260.617 317.114ZM286.692 215.778C288.131 215.528 288.612 215.055 288.898 213.751C289.423 211.256 287.519 206.741 285.353 205.401C283.729 204.392 282.14 204.845 281.28 206.557C285.212 207.417 286.102 208.901 286.692 215.778Z" fill="black"></path><path d="M438.78 284.793C437.798 285.465 437.333 286.542 436.853 287.56C435.437 290.539 434.172 293.586 432.661 296.538C427.556 306.6 421.799 316.246 415.105 325.36C405.228 338.769 394.927 351.837 383.394 363.865C378.478 368.994 373.266 373.907 367.897 378.556C359.045 386.214 349.094 392.062 337.796 395.439C332.266 397.098 326.652 397.718 320.908 396.868C318.21 396.465 315.593 395.737 313.127 394.513C312.261 394.082 311.4 393.594 310.621 393.033C307.934 391.073 307.441 389.208 309.235 386.392C310.547 384.342 312.105 382.386 313.769 380.594C316.906 377.23 320.261 374.096 323.416 370.752C326.528 367.464 329.531 364.071 332.496 360.656C339.525 352.598 346.204 344.263 352.42 335.583C357.752 328.127 362.111 320.096 365.98 311.837C371.725 299.58 376.524 286.925 379.878 273.78C381.489 267.447 382.814 261.035 384.021 254.634C385.333 247.578 386.356 240.464 387.475 233.375C387.611 232.547 387.651 231.693 387.651 230.856C387.636 230.231 387.648 229.512 386.688 229.308C385.937 229.742 385.922 230.52 385.811 231.272C383.307 247.865 379.785 264.251 374.866 280.285C370.349 295.024 364.503 309.28 356.863 322.728C353.91 327.917 350.679 332.91 347.112 337.685C340.492 346.57 333.523 355.158 326.111 363.404C325.731 363.825 325.312 364.244 324.808 364.773C324.35 364.352 323.907 364.009 323.526 363.612C319.141 359.197 314.48 355.112 309.483 351.374C301.767 345.576 294.158 339.649 286.484 333.816C285.467 333.043 284.941 332.208 284.684 330.866C283.705 325.656 282.449 320.505 281.392 315.289C279.859 307.684 278.545 300.016 276.953 292.427C275.754 286.734 274.338 281.085 272.822 275.467C270.544 267.109 268.247 258.73 265.252 250.594C262.848 244.038 260.264 237.547 256.845 231.29C266.797 228.5 276.967 226.504 285.511 220.169C287.615 221.27 289.767 222.258 292.169 221.316C292.951 221.001 293.701 220.586 293.902 219.373C291.787 218.991 289.432 220.638 287.377 218.547C287.968 218.179 288.568 217.948 288.987 217.53C289.884 216.677 290.668 215.777 291.996 215.442C292.472 215.319 292.833 214.332 293.015 213.682C293.334 212.458 293.107 211.254 292.604 210.09C291.109 206.675 288.342 204.475 285.044 203.173C282.295 202.105 279.441 203.658 279.05 207.565C278.929 208.744 278.948 208.745 278 209.497C276.336 206.284 275.709 202.988 277.018 199.593C277.972 197.089 279.616 195.296 282.667 195.392C283.134 195.405 283.922 194.993 284.005 194.648C284.175 193.881 283.477 193.56 282.782 193.472C280.835 193.18 279.006 193.442 277.473 194.756C275.112 196.773 273.918 199.357 274.244 202.496C274.536 205.282 275.344 207.929 276.63 210.433C272.365 214.05 258.252 219.528 251.512 220.109C248.32 212.836 245.115 205.484 241.848 198.166C238.58 190.868 235.193 183.601 231.765 176.097C235.118 176.877 238.095 176.364 240.64 174.498C244.148 171.958 247.551 169.255 250.899 166.49C254.496 163.509 255.49 159.605 254.557 155.119C253.642 150.654 252.061 146.531 248.354 143.565C248.28 143.502 248.272 143.345 248.174 143.066C254.074 139.739 260.441 137.536 267.076 135.39C267.184 136.352 267.23 137.095 267.372 137.845C268.436 143.236 270.749 148.033 274.6 152.003C277.343 154.843 280.272 155.281 283.783 153.54C284.529 153.164 285.279 152.749 285.955 152.271C292.831 147.513 300.422 144.246 308.317 141.623C310.351 140.948 312.398 140.351 314.397 139.614C320.652 137.345 324.65 131.412 324.473 124.758C324.461 124.641 324.548 124.51 324.628 124.204C327.119 123.95 329.66 123.543 332.239 123.432C342.578 122.908 352.918 122.365 363.265 121.998C371.349 121.707 379.441 121.552 387.522 121.572C396.032 121.583 404.445 122.424 412.676 124.752C414.299 125.216 415.63 125.952 416.561 127.4C419.655 132.174 422.789 136.93 425.883 141.704C432.509 151.944 437.085 163.092 440.832 174.669C448.919 199.676 455.595 225.071 462.508 250.424C464.834 258.941 466.451 267.565 467.949 276.219C469.572 285.603 470.153 295.108 470.638 304.607C471.019 312.249 470.817 319.869 470.614 327.508C470.436 334.234 470.432 340.972 470.273 347.7C470.183 351.783 469.879 355.852 469.749 359.932C469.518 366.577 468.113 373.022 466.708 379.467C464.982 387.448 462.32 395.15 460.001 402.972C455.9 416.785 451.28 430.484 448.824 444.724C447.81 450.593 447.008 456.496 446.226 462.382C444.821 472.722 445.091 483.063 446.534 493.349C447.632 501.041 449.224 508.63 450.401 516.308C450.96 520.008 451.301 523.771 451.292 527.51C451.285 530.119 450.727 532.807 449.988 535.306C448.31 540.915 444.057 543.811 438.493 544.279C431.793 544.843 425.034 544.857 418.439 543.091C416.891 542.671 415.376 542.059 413.927 541.334C408.731 538.77 404.078 535.407 399.816 531.467C389.923 522.265 381.72 511.739 374.778 500.172C371.323 494.439 369.677 488.17 369.421 481.53C369.207 476.237 369.189 470.919 368.975 465.627C368.814 461.798 368.28 458.022 366.777 454.45C365.273 450.898 362.91 448.201 359.057 446.763C359.936 437.807 359.746 428.836 357.892 419.981C356.037 411.127 353.064 402.681 348.097 394.894C348.505 394.63 348.855 394.363 349.257 394.177C358.378 389.907 366.402 384.06 373.862 377.357C384.046 368.195 393.041 357.918 401.836 347.452C412.903 334.281 422.707 320.244 431.1 305.212C434.106 299.832 436.621 294.224 438.453 288.354C438.801 287.268 438.978 286.132 439.231 285.02C439.12 284.934 438.95 284.864 438.78 284.793ZM287.465 168.56C289.393 168.559 291.469 168.665 293.541 168.557C299.581 168.239 305.241 166.668 310.312 163.225C315.139 159.92 318.87 155.585 322.311 150.937C322.462 150.734 322.594 150.509 322.727 150.285C323.083 149.648 323.069 149.004 322.458 148.552C321.847 148.101 321.211 148.29 320.708 148.8C320.29 149.199 319.963 149.702 319.583 150.123C317.035 152.867 314.631 155.775 311.866 158.27C307.541 162.193 302.588 165.06 296.65 165.872C293.11 166.365 289.564 166.389 286.024 166.044C285 165.934 283.983 165.707 282.956 165.635C281.832 165.557 280.707 165.77 279.943 166.671C279.687 166.984 279.623 167.622 279.731 168.039C279.775 168.237 280.578 168.449 280.86 168.312C282.01 167.75 283.123 167.984 284.279 168.162C285.265 168.27 286.307 168.401 287.465 168.56ZM247.273 189.938C251.463 190.172 254.85 188.52 257.502 185.414C259.135 183.503 260.529 181.4 262.015 179.361C262.619 178.527 263.129 177.628 264.276 177.377C264.91 177.227 265.34 176.653 265.03 176.067C264.807 175.642 264.103 175.125 263.746 175.217C262.914 175.412 262.048 175.819 261.406 176.378C260.638 177.045 260.125 177.983 259.484 178.795C257.99 180.657 256.624 182.646 254.966 184.36C252.046 187.409 247.504 188.298 243.778 186.168C243.291 185.881 242.704 185.645 242.161 185.607C241.173 185.538 240.64 186.475 241.185 187.311C241.378 187.617 241.689 187.911 242.025 188.11C243.631 189.099 245.332 189.841 247.273 189.938ZM305.645 185.957C304.608 186.313 304.534 187.087 304.315 187.714C302.582 192.442 302.993 197.145 304.757 201.728C306.916 207.332 310.661 211.703 315.756 214.883C320.084 217.601 324.799 218.963 329.939 218.699C330.546 218.663 331.238 218.79 331.458 217.87C328.294 217.435 325.155 217.215 322.147 216.499C319.024 215.774 316.384 213.973 313.939 211.893C311.459 209.772 309.432 207.274 307.82 204.435C306.242 201.656 305.264 198.647 304.864 195.464C304.441 192.319 305.008 189.223 305.645 185.957Z" fill="#49EB92"></path><path d="M286.852 381.108C287.996 378.403 287.471 375.874 286.213 373.546C283.936 369.336 281.582 365.121 278.14 361.706C274.863 358.439 273.159 357.462 268.591 359.577C267.457 358.524 266.287 357.43 265.117 356.335C263.949 355.221 262.78 354.108 261.648 353.035C262.591 348.739 261.35 345.03 258.837 341.699C256.948 339.191 254.578 337.155 252.012 335.418C248.684 333.16 245.151 332.445 241.342 334.555C240.548 333.935 239.811 333.338 238.924 332.653C243.319 330.506 244.451 326.573 245.15 322.435C245.608 319.78 245.266 317.146 244.847 314.507C244.751 313.936 244.595 313.379 244.4 312.82C241.661 304.644 232.913 298.852 224.338 299.499C221.069 299.738 217.94 300.473 214.965 301.804C214.322 302.09 213.642 302.334 212.996 302.659C211.462 303.428 210.171 303.241 208.999 301.893C207.773 300.483 206.445 299.143 205.085 297.705C206.007 293.991 204.765 290.593 203.265 287.255C202.168 284.842 200.486 282.991 198.147 281.62C196.108 280.426 194.149 279.198 191.747 279.011C190.14 278.879 188.527 278.824 186.922 278.946C186.139 279.008 185.592 279.028 185.03 278.424C180.903 273.948 176.445 269.742 172.73 264.944C169.299 260.536 166.241 255.804 165.064 250.074C162.478 237.488 170.351 226.275 181.684 223.796C187.419 222.542 193.208 222.187 199.04 222.342C199.681 222.367 200.34 222.413 200.98 222.458C212.863 223.523 224.75 223.692 236.678 223.844C247.787 223.998 258.439 222.074 268.655 217.725C273.693 215.585 278.364 212.854 282.249 208.821C283.247 209.3 283.74 210.055 283.943 211.043C278.927 217.606 272.428 221.982 264.706 224.635C256.225 227.548 247.504 229.45 238.696 230.918C235.07 231.522 231.366 231.574 227.691 231.765C221.3 232.097 214.877 232.31 208.647 233.958C206.107 234.638 203.604 235.612 201.192 236.69C198.436 237.938 196.196 239.904 194.462 242.412C191.71 246.407 191.443 250.497 193.709 254.862C196.074 259.468 199.283 263.432 202.698 267.234C209.419 274.715 216.835 281.466 224.417 288.053C228.384 291.485 232.183 295.081 235.919 298.751C239.745 302.524 243.929 305.913 247.922 309.522C263.82 323.916 280.675 337.15 297.809 350.033C305.21 355.594 312.311 361.544 319.117 367.823C319.592 368.266 320.048 368.707 320.594 369.251C320.252 369.695 319.97 370.103 319.634 370.45C316.819 373.388 313.929 376.283 311.168 379.284C309.734 380.858 308.445 382.579 307.232 384.325C306.581 385.273 306.115 386.37 305.765 387.475C305.086 389.667 305.445 391.776 307.082 393.429C308.247 394.601 309.616 395.632 311.014 396.528C312.859 397.709 314.877 398.648 316.745 399.792C321.787 402.89 327.35 403.824 333.123 403.702C336.028 403.652 338.919 403.251 341.818 403.005C342.131 402.988 342.441 403.01 342.851 403C343.8 405.306 344.313 407.718 344.611 410.134C345.285 415.537 345.607 420.954 344.624 426.377C343.773 431.03 342.09 435.334 339.535 439.284C336.498 443.999 332.91 448.246 328.717 451.946C321.266 458.513 312.407 462.101 302.68 463.621C297.423 464.442 292.089 464.692 286.8 464.01C275.163 462.495 264.011 459.32 253.426 454.179C244.009 449.586 235.221 444.083 227.483 436.94C223.203 432.98 218.794 429.185 214.367 425.37C210.381 421.937 206.158 418.837 201.673 416.128C198.085 413.968 194.279 412.417 190.063 411.986C184.88 411.467 180.019 412.199 175.67 415.342C171.67 418.236 168.067 421.587 164.7 425.169C163.502 426.429 162.249 427.646 160.977 428.843C158.682 431.019 156.441 433.277 154.02 435.309C151.764 437.215 149.414 439.076 146.89 440.633C142.961 443.066 138.577 443.382 134.124 442.448C130.362 441.659 127.551 439.515 125.787 436.061C123.626 431.879 122.869 427.385 122.824 422.728C122.791 417.078 124.16 411.701 126.01 406.416C127.763 401.397 129.988 396.587 132.535 391.915C134.994 387.394 138.026 383.302 141.522 379.535C147.886 372.637 154.232 365.72 160.579 358.782C165.091 353.859 169.838 349.186 175.202 345.179C180.977 340.85 187.345 337.79 194.439 336.319C200.209 335.126 205.65 335.857 210.646 339.05C214.821 341.737 217.498 345.508 218.581 350.355C219.262 353.421 218.955 356.418 217.34 359.187C216.101 361.302 214.769 363.37 213.472 365.48C211.735 368.319 210.859 371.374 210.957 374.711C211.029 377.306 211.737 379.712 213.004 381.923C215.419 386.104 218.453 389.783 222.189 392.887C223.127 393.674 223.98 394.571 224.877 395.393C236.859 406.455 249.663 416.368 264.339 423.723C270.115 426.62 276.217 428.488 282.512 429.804C285.122 430.357 287.791 430.349 290.447 429.97C294.106 429.447 297 427.604 299.189 424.7C302.946 419.723 304.093 414.175 302.292 408.187C299.828 399.972 295.709 392.595 290.559 385.75C289.379 384.245 288.139 382.756 286.852 381.108ZM209.727 354.702C209.831 349.314 207.087 345.383 202.122 344.257C200.761 343.948 199.281 343.942 197.891 344.059C194.736 344.325 191.829 345.524 189.165 347.129C185.404 349.398 181.656 351.746 178.143 354.363C168.198 361.788 159.518 370.607 151.404 379.972C145.937 386.309 140.878 392.927 136.632 400.167C134.289 404.152 132.401 408.324 131.402 412.85C130.521 416.82 130.108 420.783 132.418 424.509C132.559 424.713 132.618 424.99 132.66 425.227C132.834 426.641 133.829 427.159 135.038 427.418C136.747 427.771 138.452 427.618 139.951 426.788C141.633 425.854 143.302 424.822 144.808 423.622C146.356 422.367 147.671 420.823 149.113 419.424C154.4 414.283 159.614 409.058 165.011 404.021C172.907 396.647 181.023 389.483 188.902 382.088C194.237 377.086 199.464 371.96 203.961 366.139C205.46 364.199 206.832 362.133 207.956 359.972C208.79 358.356 209.155 356.473 209.727 354.702Z" fill="#F2DF32"></path><path d="M345.834 402.41C346.057 402.289 346.222 402.164 346.4 402.118C347.212 401.922 348.023 401.745 348.934 401.536C349.159 401.941 349.405 402.309 349.572 402.71C354.095 413.504 356.681 424.708 356.773 436.477C356.81 443.199 356.114 449.81 354.32 456.248C351.975 464.712 347.595 471.923 341.149 478.054C334.661 484.222 327.028 488.09 318.558 490.302C314.213 491.439 309.63 491.82 305.123 492.206C300.42 492.617 295.69 492.871 290.967 492.735C285.932 492.597 280.88 492.166 275.907 491.429C268.735 490.382 261.635 488.873 254.72 486.656C245.312 483.622 236.438 479.34 228.211 473.896C220.171 468.563 212.346 462.933 204.435 457.413C198.603 453.364 193.511 448.489 188.609 443.395C183.978 438.591 179.327 433.806 174.696 429.023C172.607 426.871 171.374 426.122 168.384 425.154C168.682 424.785 168.903 424.411 169.215 424.121C171.105 422.442 172.995 420.763 174.901 419.124C180.913 413.916 187.745 413.42 194.927 415.987C197.339 416.857 199.625 418.146 201.808 419.506C206.718 422.537 211.196 426.181 215.526 429.989C219.268 433.289 222.991 436.587 226.712 439.905C238.388 450.342 251.911 457.481 266.723 462.334C273.387 464.513 280.211 466.081 287.176 466.743C300.932 468.036 314.031 465.642 325.545 457.78C335.198 451.191 342.546 442.474 346.3 431.129C348.03 425.875 348.156 420.45 347.895 414.998C347.709 410.974 347.129 407.018 345.938 403.157C345.857 402.918 345.856 402.664 345.834 402.41Z" fill="#DAC62D"></path><path d="M215.063 113.841C215.668 111.605 216.214 109.364 216.857 107.131C219.83 96.9193 223.467 86.9687 228.693 77.6745C230.627 74.2458 232.825 70.9524 234.946 67.6341C236.585 65.0807 238.914 63.2376 241.568 61.7678C244.871 59.9344 248.338 58.5409 251.921 57.4282C258.551 55.3601 265.31 53.9437 272.172 53.0212C273.509 52.8421 274.403 53.1383 275.299 54.2526C279.755 59.8809 283.258 66.0463 285.929 72.6793C287.192 75.7863 290.903 77.5843 294.068 76.8903C295.788 76.5237 296.968 75.2429 297.537 73.5105C298.304 71.1687 298.159 68.7826 297.8 66.401C297.101 61.6392 295.648 57.0778 293.775 52.6623C293.575 52.1809 293.354 51.7175 293.174 51.2375C293.124 51.1172 293.153 50.9829 293.138 50.6313C295.217 50.4261 297.296 50.2209 299.394 50.0171C306.805 49.3084 314.222 48.7948 321.682 49.0633C328.792 49.3074 335.829 50.0526 342.855 51.5176C347.921 52.5925 352.387 54.7354 356.773 57.1844C368.47 63.6891 379.129 71.6791 389.549 80.0225C392.131 82.0922 394.63 84.2339 397.149 86.3576C397.628 86.761 398.024 87.2172 398.305 87.938C397.578 87.7508 396.851 87.5636 396.124 87.3765C390.127 85.6912 384.01 84.6013 377.856 83.762C372.609 83.0446 367.349 82.2288 362.061 81.8201C355.224 81.2836 348.369 80.999 341.527 80.8127C320.167 80.1954 299.225 83.3466 278.51 88.2664C266.093 91.2153 253.88 94.86 242.185 100.021C233.183 103.988 224.333 108.277 216.085 113.718C215.88 113.859 215.641 113.94 215.437 114.062C215.365 113.979 215.214 113.91 215.063 113.841Z" fill="#7C77FF"></path><path d="M236.523 192.874C228.499 193.716 220.819 193.256 213.32 191.31C207.773 189.871 202.655 187.312 197.89 184.155C195.935 182.869 194.321 181.16 193.14 179.11C191.526 176.29 191.146 173.381 192.524 170.381C193.143 169.042 193.824 167.668 194.759 166.545C196.865 164.005 198.991 161.446 201.37 159.178C213.055 148.038 226.379 139.368 241.084 132.665C256.774 125.524 273.166 120.594 289.849 116.522C304.629 112.92 319.582 110.188 334.636 107.969C341.228 106.988 347.793 105.851 354.4 104.949C357.664 104.496 360.978 104.455 364.255 104.1C371.832 103.247 379.389 103.795 386.926 104.361C402.076 105.498 416.972 108.039 431.354 113.193C434.583 114.354 437.786 115.629 440.54 117.731C441.668 118.589 442.772 119.523 443.69 120.599C445.937 123.269 446.058 126.277 444.197 129.223C442.84 131.349 440.977 132.932 438.772 134.102C435.091 136.065 431.149 137.289 426.933 138.26C426.529 137.628 426.106 136.995 425.702 136.363C426.337 135.648 426.857 134.886 427.521 134.309C428.577 133.409 428.432 132.425 427.962 131.341C427.006 129.131 425.45 127.445 423.416 126.173C420.635 124.44 417.619 123.295 414.508 122.376C407.278 120.215 399.882 119.036 392.339 118.859C377.581 118.508 362.83 119.191 348.105 119.778C329.004 120.545 310.042 122.686 291.282 126.379C279.652 128.662 268.216 131.777 257.146 136.067C247.978 139.632 239.484 144.394 231.807 150.576C229.186 152.691 226.67 154.969 224.816 157.819C223.812 159.365 222.952 161.077 222.362 162.827C221.523 165.359 222.031 167.848 223.472 170.072C224.805 172.171 226.452 173.961 228.773 174.747C231.311 180.786 233.857 186.709 236.523 192.874Z" fill="#5758C7"></path><path d="M407.045 96.5899C403.247 96.3243 399.973 96.0759 396.677 95.8649C388.281 95.3362 379.863 95.4097 371.456 95.6008C366.794 95.7033 362.15 95.8265 357.495 95.8321C341.388 95.8548 325.539 98.0184 309.816 101.457C289.881 105.808 270.248 111.134 250.936 117.71C242.298 120.651 233.853 124.169 225.852 128.576C221.394 131.049 217.091 133.825 212.72 136.46C212.252 136.739 211.728 136.995 210.938 137.427C211.236 135.402 211.434 133.683 211.727 131.99C212.422 127.91 213.193 123.835 213.83 119.751C214.117 117.862 215.104 116.568 216.689 115.627C219.575 113.901 222.426 112.114 225.365 110.469C243.723 100.263 263.321 93.4924 283.874 89.2234C296.561 86.5856 309.307 84.5166 322.212 83.491C326.266 83.1707 330.36 83.1065 334.433 83.0796C343.241 82.9945 352.046 83.2402 360.811 84.0673C366.015 84.5675 371.227 85.2241 376.405 86.0925C382.392 87.0954 388.363 88.3115 394.294 89.5636C396.692 90.0818 398.981 91.0404 401.353 91.6542C403.936 92.3217 405.255 94.342 407.045 96.5899Z" fill="#343263"></path><path d="M232.828 16.5971C246.027 17.7733 258.503 21.2358 269.94 28.1119C278.482 33.2468 284.515 40.5434 288.96 49.3844C290.927 53.2806 292.738 57.1854 293.907 61.3569C294.515 63.5222 294.903 65.7695 295.312 67.9988C295.48 68.9453 295.469 69.9378 295.441 70.8901C295.395 72.1138 295.411 73.5561 294.088 74.0868C292.586 74.6829 291.032 74.3405 289.633 73.4637C289.39 73.3104 289.177 73.0228 289.039 72.76C285.675 66.5654 282.432 60.3013 278.946 54.1761C276.238 49.4491 272.455 45.6206 268.063 42.4311C259.111 35.9237 249.074 32.4174 237.993 32.4021C230.731 32.3811 223.678 33.8159 217.092 36.9194C213.951 38.3941 210.871 40.1067 207.971 42.0267C203.765 44.8097 200.575 48.6569 197.752 52.8219C195.928 55.4988 194.031 58.1316 192.041 60.68C190.394 62.785 188.475 64.6178 186.104 65.9321C182.052 68.1805 178.07 67.4736 175.209 63.8265C174.296 62.672 173.593 61.318 173.066 59.9374C171.865 56.7764 171.802 53.5001 172.366 50.1704C173.385 43.9512 176.42 38.7104 180.631 34.1945C183.179 31.4514 185.949 28.8796 188.841 26.5112C195.865 20.7508 204.022 17.7378 213.05 17.0253C219.632 16.4729 226.219 16.135 232.828 16.5971Z" fill="#49EB92"></path><path d="M218.771 92.308C217.364 96.5525 216.081 100.416 214.871 104.071C210.342 104.222 206.002 104.191 201.689 104.59C197.573 104.965 193.445 105.513 189.443 106.48C180.926 108.533 174.667 113.646 170.636 121.446C168.88 124.829 167.18 128.254 165.257 131.528C163.379 134.707 160.961 137.538 158.107 139.909C156.97 140.861 155.721 141.728 154.41 142.377C151.346 143.857 148.57 143.176 146.436 140.553C144.464 138.117 143.435 135.28 143.125 132.201C142.549 126.512 143.803 121.108 145.975 115.943C149.341 107.921 154.542 101.216 161.203 95.644C165.133 92.3549 169.803 90.734 174.775 89.8158C180.832 88.7008 186.966 88.4286 193.123 88.3917C199.748 88.3486 206.296 89.1181 212.759 90.5438C214.719 90.934 216.655 91.6537 218.771 92.308Z" fill="#2FBC6F"></path><path d="M247.186 409.713C256.546 399.792 265.536 389.866 273.041 378.627C276.041 380.571 278.985 381.633 282.285 379.566C282.505 379.757 282.786 379.913 282.964 380.159C289.702 388.517 295.507 397.414 299.197 407.585C300.275 410.543 301.199 413.49 300.412 416.668C300.035 418.16 299.636 419.691 298.975 421.066C296.658 425.792 292.614 427.632 287.539 427.531C284.077 427.464 280.781 426.415 277.474 425.522C267.784 422.897 259.272 417.9 250.988 412.433C249.816 411.65 248.688 410.792 247.186 409.713Z" fill="#2FBC6F"></path><path d="M275.574 494.175C275.385 494.649 275.305 494.954 275.169 495.237C272.075 501.876 268.551 508.271 264.222 514.2C262.52 516.535 260.557 518.715 258.468 520.731C255.647 523.474 252.197 524.635 248.174 524.237C244.345 523.852 240.634 523.164 237.05 521.784C233.37 520.378 230.919 517.83 229.56 514.152C228.25 510.594 227.751 506.878 227.409 503.135C226.687 495.352 226.123 487.542 225.5 479.748C225.394 478.474 225.288 477.201 225.136 475.477C232.996 480.603 240.948 484.704 249.373 487.863C257.74 491.039 266.526 492.666 275.574 494.175Z" fill="#2FBC6F"></path><path d="M442.489 115.313C436.014 110.984 428.602 109.2 421.349 107.096C413.122 104.71 404.688 103.341 396.179 102.473C394.497 102.297 392.839 102.064 391.176 101.89C386.342 101.396 381.496 101.349 376.631 101.574C370.106 101.857 363.569 102.043 357.039 102.404C347.088 102.955 337.187 104.171 327.386 105.92C304.449 110.022 281.615 114.619 259.54 122.267C245.069 127.293 231.105 133.425 218.315 141.995C211.572 146.509 205.17 151.456 199.414 157.169C196.715 159.843 194.306 162.83 191.879 165.776C190.965 166.881 190.381 168.261 189.518 169.74C188.803 166.32 188.614 163.172 190.411 160.318C191.965 157.875 193.597 155.418 195.519 153.274C200.209 148.032 205.62 143.62 211.55 139.867C215.87 137.131 220.348 134.64 224.631 131.881C235.317 124.994 247.304 121.237 259.238 117.397C280.255 110.668 301.597 105.13 323.335 101.177C332.961 99.4353 342.668 98.4782 352.457 98.3058C362.87 98.1186 373.282 97.9314 383.688 97.8411C392.302 97.7618 400.907 98.3635 409.447 99.3307C416.596 100.142 423.623 101.588 430.556 103.533C434.338 104.596 437.283 106.769 439.513 109.963C440.703 111.604 441.892 113.265 442.489 115.313Z" fill="#7C77FF"></path><path d="M261.27 247.867C261.552 248.568 261.853 249.271 262.114 249.99C267.66 266.212 272.47 282.654 275.474 299.573C275.655 300.599 275.817 301.623 276.098 302.616C276.364 303.55 276.124 304.196 275.379 304.825C271.09 308.518 266.237 311.353 261.358 314.283C251.569 306.938 241.939 299.546 232.645 291.535C232.893 291.338 233.064 291.116 233.265 291.033C240.516 288.151 245.825 282.972 250.198 276.695C256.129 268.19 259.725 258.821 260.797 248.496C260.811 248.302 260.881 248.132 260.914 247.94C261.033 247.909 261.151 247.898 261.27 247.867Z" fill="#2FBC6F"></path><path d="M321.477 124.65C321.405 125.677 321.478 126.578 321.265 127.4C320.037 132.144 317.401 135.582 312.573 137.231C307.625 138.93 302.723 140.788 297.857 142.707C293.691 144.344 289.818 146.546 286.098 149.052C284.81 149.916 283.47 150.698 282.079 151.38C280.183 152.319 278.416 151.961 276.945 150.437C276.183 149.644 275.421 148.831 274.803 147.931C272.518 144.674 270.92 141.076 269.863 137.244C269.692 136.628 269.621 135.981 269.53 135.332C269.503 135.154 269.575 134.965 269.606 134.792C276.547 131.616 306.74 125.684 321.477 124.65Z" fill="#1E8346"></path><path d="M198.948 298.314C200.463 298.089 201.69 298.642 202.717 299.551C203.78 300.502 204.74 301.543 205.739 302.567C206.32 303.172 206.88 303.796 207.481 304.402C209.172 306.118 211.174 306.452 213.375 305.613C214.635 305.136 215.867 304.502 217.11 304.005C221.116 302.415 225.226 301.846 229.466 302.765C230.655 303.024 231.831 303.476 232.881 304.056C235.937 305.75 238.4 308.122 240.279 311.058C243.385 315.93 242.17 321.61 237.368 324.838C233.731 327.271 229.662 327.804 225.459 326.926C215.132 324.763 208.39 318.41 204.868 308.621C203.807 305.684 202.652 302.994 200.142 301.007C199.409 300.352 198.605 299.595 198.948 298.314Z" fill="#49EB92"></path><path d="M245.516 144.539C246.438 145.285 247.277 145.811 247.91 146.518C251.207 150.332 252.628 154.794 252.182 159.787C252.09 160.813 251.49 161.881 250.884 162.754C250.233 163.701 249.376 164.537 248.469 165.253C245.607 167.468 242.726 169.681 239.757 171.752C235.294 174.868 232.213 173.815 227.938 170.614C226.697 169.69 226.579 168.046 226.812 166.66C227.111 164.889 227.53 163.068 228.36 161.51C232.281 154.169 238.279 148.882 245.516 144.539Z" fill="#1E8346"></path><path d="M240.839 338.458C243.098 335.403 246.547 335.099 249.502 336.844C252.85 338.811 255.306 341.573 256.546 345.282C257.015 346.659 257.205 348.113 256.032 349.297C254.817 350.517 253.222 350.484 251.865 349.843C246.774 347.442 242.813 343.933 240.839 338.458Z" fill="#F2DF32"></path><path d="M281.222 374.699C281.05 377.433 279.994 378.333 277.752 377.806C276.737 377.56 275.644 377.036 274.875 376.339C272.146 373.87 270.115 370.885 268.997 367.379C268.694 366.423 268.576 365.324 268.684 364.338C268.993 361.594 271.874 360.218 274.207 361.667C275.066 362.194 275.872 362.913 276.498 363.716C278.61 366.376 280.155 369.347 280.935 372.673C281.133 373.466 281.19 374.327 281.222 374.699Z" fill="#F2DF32"></path><path d="M186.001 282.122C189.043 280.952 191.664 281.35 194.08 282.454C197.627 284.084 199.882 286.93 200.645 290.781C200.847 291.788 200.687 292.965 200.382 293.976C200.055 295.043 199.302 295.224 198.219 294.837C197.971 294.761 197.724 294.666 197.5 294.534C193.368 292.356 189.976 289.334 187.425 285.435C186.808 284.516 186.537 283.367 186.001 282.122Z" fill="#F2DF32"></path><path d="M260.619 317.112C261.287 317.587 261.956 318.043 262.623 318.537C274.932 327.986 287.242 337.436 299.57 346.906C302.139 348.877 304.689 350.847 307.28 352.781C312.426 356.607 317.276 360.783 321.787 365.344C322.186 365.762 322.566 366.178 323.055 366.699C322.675 367.12 322.359 367.468 321.958 367.907C321.101 367.068 320.297 366.311 319.532 365.557C310.561 356.828 300.589 349.314 290.725 341.652C281.12 334.184 271.686 326.513 262.186 318.935C261.577 318.445 261.01 317.918 260.442 317.411C260.47 317.296 260.535 317.203 260.619 317.112Z" fill="#DAC62D"></path><path d="M286.692 215.778C286.083 208.88 285.212 207.417 281.278 206.577C282.138 204.865 283.728 204.411 285.351 205.421C287.518 206.741 289.423 211.256 288.896 213.77C288.61 215.075 288.129 215.547 286.692 215.778Z" fill="#F2DF32"></path><path d="M287.46 168.561C286.302 168.402 285.278 168.292 284.258 168.123C283.102 167.945 281.988 167.711 280.839 168.274C280.557 168.41 279.754 168.198 279.709 168C279.602 167.583 279.647 166.944 279.922 166.632C280.686 165.731 281.811 165.518 282.935 165.596C283.962 165.668 284.978 165.895 286.003 166.006C289.561 166.371 293.108 166.327 296.629 165.833C302.548 165.02 307.519 162.154 311.845 158.231C314.61 155.717 317.015 152.808 319.562 150.085C319.961 149.665 320.288 149.162 320.686 148.761C321.189 148.251 321.824 148.081 322.437 148.513C323.048 148.965 323.042 149.607 322.705 150.246C322.592 150.472 322.44 150.695 322.29 150.899C318.849 155.546 315.118 159.881 310.291 163.186C305.219 166.648 299.56 168.2 293.52 168.518C291.466 168.647 289.388 168.56 287.46 168.561Z" fill="black"></path><path d="M247.27 189.94C245.329 189.843 243.628 189.101 242.023 188.113C241.705 187.915 241.394 187.64 241.183 187.314C240.637 186.477 241.172 185.521 242.159 185.61C242.721 185.649 243.289 185.884 243.775 186.171C247.502 188.301 252.043 187.411 254.963 184.363C256.602 182.647 257.988 180.66 259.481 178.797C260.122 177.985 260.636 177.047 261.403 176.381C262.046 175.822 262.912 175.415 263.743 175.22C264.1 175.128 264.804 175.645 265.028 176.069C265.336 176.675 264.906 177.249 264.274 177.38C263.127 177.631 262.635 178.531 262.012 179.364C260.526 181.402 259.113 183.504 257.499 185.417C254.846 188.542 251.441 190.173 247.27 189.94Z" fill="black"></path><path d="M305.645 185.955C305.007 189.222 304.44 192.317 304.862 195.482C305.262 198.665 306.222 201.654 307.818 204.453C309.43 207.292 311.456 209.79 313.937 211.911C316.382 213.991 319.022 215.792 322.145 216.517C325.154 217.214 328.294 217.433 331.456 217.888C331.254 218.828 330.544 218.681 329.937 218.717C324.797 218.981 320.101 217.62 315.754 214.901C310.661 211.702 306.933 207.351 304.755 201.746C302.973 197.142 302.58 192.46 304.313 187.732C304.533 187.085 304.606 186.331 305.645 185.955Z" fill="black"></path><path d="M209.724 354.709C209.153 356.481 208.787 358.364 207.933 359.998C206.808 362.159 205.417 364.224 203.938 366.165C199.462 371.967 194.214 377.112 188.878 382.114C180.98 389.507 172.884 396.673 164.987 404.047C159.591 409.084 154.376 414.308 149.089 419.45C147.648 420.849 146.332 422.393 144.784 423.648C143.296 424.868 141.627 425.901 139.928 426.814C138.428 427.644 136.722 427.817 135.015 427.444C133.806 427.184 132.81 426.667 132.636 425.252C132.615 424.998 132.536 424.739 132.394 424.534C130.084 420.809 130.498 416.845 131.379 412.876C132.396 408.351 134.266 404.177 136.609 400.193C140.853 392.972 145.894 386.333 151.381 379.998C159.496 370.614 168.174 361.814 178.119 354.389C181.634 351.752 185.38 349.424 189.142 347.155C191.805 345.55 194.711 344.37 197.867 344.084C199.258 343.967 200.738 343.973 202.099 344.283C207.085 345.391 209.827 349.342 209.724 354.709ZM133.057 417.005C133.36 418.798 133.49 420.56 133.978 422.211C134.478 423.979 136.155 424.778 137.804 424.036C139.313 423.343 140.776 422.472 142.113 421.455C143.45 420.439 144.608 419.195 145.764 417.991C153.37 410.032 161.451 402.534 169.655 395.22C175.22 390.273 180.75 385.285 186.097 380.108C190.669 375.715 195.024 371.092 199.341 366.447C201.132 364.508 202.557 362.232 204.146 360.123C204.726 359.346 204.784 358.512 204.501 357.558C203.89 355.431 202.314 354.016 199.923 353.674C197.302 353.276 194.756 353.76 192.27 354.502C186.94 356.076 181.982 358.476 177.543 361.788C171.541 366.295 165.681 371.007 159.786 375.659C158.92 376.338 158.144 377.141 157.424 377.967C153.949 381.989 150.401 385.928 147.11 390.099C142.282 396.208 137.88 402.619 135.108 409.962C134.268 412.221 133.748 414.638 133.057 417.005Z" fill="black"></path><path d="M61.3748 335.377C51.2367 333.905 40.7618 329.112 31.4974 321.678C26.7751 317.892 23.305 313.033 20.6348 307.656C17.7391 301.844 17.3125 295.62 18.0723 289.273C19.4807 277.232 28.8333 268.121 40.4339 265.2C49.602 262.89 58.7459 263.099 67.8186 265.9C76.8161 268.672 84.7978 273.209 91.6544 279.615C98.2812 285.801 102.656 293.262 104.117 302.336C104.98 307.787 104.323 313.031 102.103 318.083C100.715 321.271 98.6744 323.997 96.0563 326.288C90.7579 330.902 84.7183 333.91 77.7485 335.075C72.8682 335.904 67.981 336.087 61.3748 335.377ZM63.8576 332.895C65.2629 332.914 68.0564 333.105 70.8239 333C78.7725 332.705 86.0849 330.562 92.4794 325.58C99.3457 320.221 102.27 313.214 101.552 304.672C100.811 295.814 96.7318 288.503 90.4483 282.394C81.8892 274.06 71.6201 268.997 59.8448 267.13C52.6419 265.982 45.4507 266.497 38.5891 268.984C30.0157 272.102 23.8191 277.77 21.4842 286.875C20.4548 290.885 19.9382 295.03 21.183 299.155C21.542 300.329 21.8603 301.517 22.0799 302.714C22.5815 305.428 23.6386 307.89 25.099 310.24C28.8015 316.181 33.4966 321.097 39.7205 324.385C43.4869 326.384 47.3499 328.218 51.2449 329.938C54.8052 331.504 58.601 332.354 63.8576 332.895Z" fill="black"></path><path d="M63.8585 332.897C58.6019 332.355 54.804 331.525 51.2265 329.937C47.3315 328.217 43.4707 326.364 39.702 324.384C33.4782 321.097 28.7852 316.161 25.0806 310.24C23.6181 307.908 22.5824 305.429 22.0615 302.713C21.8419 301.516 21.5043 300.326 21.1646 299.155C19.9391 295.032 20.4557 290.887 21.4658 286.874C23.8007 277.769 30.0167 272.104 38.5707 268.983C45.4344 266.477 52.6235 265.981 59.8264 267.129C71.5803 269.014 81.8686 274.079 90.4299 282.394C96.6941 288.5 100.773 295.811 101.534 304.671C102.251 313.214 99.3445 320.242 92.461 325.58C86.0665 330.561 78.752 332.724 70.8055 332.999C68.0573 333.106 65.2638 332.915 63.8585 332.897ZM65.4848 312.69C66.7099 312.747 67.9436 312.903 69.1579 312.881C72.0156 312.844 74.841 312.57 77.406 311.114C81.5945 308.762 82.9264 304.668 80.7589 300.402C80.1489 299.201 79.3565 298.058 78.4269 297.095C74.0752 292.432 68.7204 289.416 62.53 287.951C57.1398 286.671 52.1652 287.646 47.7156 291.122C45.7064 292.679 44.8173 294.711 44.9154 297.185C45.0612 300.465 46.5475 303.112 48.9239 305.309C53.6273 309.621 59.2197 311.9 65.4848 312.69Z" fill="#7EFBFF"></path><path d="M65.4809 312.687C59.2157 311.897 53.6233 309.618 48.9414 305.289C46.565 303.092 45.0766 300.465 44.9329 297.165C44.8369 294.672 45.7238 292.659 47.7331 291.103C52.1805 287.646 57.1552 286.671 62.5474 287.931C68.7379 289.397 74.0927 292.412 78.4444 297.075C79.3525 298.055 80.1642 299.2 80.7764 300.382C82.9417 304.667 81.612 308.742 77.4235 311.094C74.8606 312.531 72.0352 312.805 69.1754 312.861C67.9204 312.898 66.706 312.744 65.4809 312.687ZM60.086 290.395C59.0884 290.402 57.9813 290.339 56.8915 290.472C53.4269 290.872 50.4371 292.281 48.0938 294.915C47.2684 295.84 46.8721 296.773 47.2785 298.226C47.9407 300.547 49.2956 302.26 51.0279 303.741C56.6155 308.541 63.1903 310.421 70.4502 310.167C72.6664 310.1 74.8137 309.594 76.6966 308.297C78.9204 306.744 79.5563 304.704 78.5227 302.205C78.151 301.323 77.6613 300.448 77.0387 299.715C72.5429 294.586 66.8471 291.65 60.086 290.395Z" fill="black"></path><path d="M133.06 417.003C133.753 414.617 134.271 412.219 135.133 409.922C137.925 402.581 142.327 396.17 147.136 390.06C150.425 385.908 153.993 381.951 157.449 377.927C158.169 377.101 158.946 376.299 159.811 375.619C165.706 370.968 171.549 366.235 177.569 361.748C182.007 358.436 186.966 356.037 192.295 354.462C194.801 353.722 197.327 353.236 199.948 353.634C202.338 353.996 203.935 355.393 204.526 357.518C204.79 358.471 204.752 359.306 204.171 360.083C202.581 362.212 201.158 364.469 199.367 366.408C195.049 371.053 190.695 375.675 186.123 380.069C180.756 385.244 175.226 390.232 169.681 395.181C161.456 402.512 153.396 409.992 145.789 417.951C144.633 419.175 143.455 420.417 142.139 421.416C140.821 422.434 139.358 423.305 137.83 423.997C136.181 424.738 134.503 423.939 134.004 422.171C133.513 420.559 133.362 418.815 133.06 417.003Z" fill="#DAC62D"></path><path d="M95.4225 350.821C93.2895 347.254 92.7175 343.452 94.1504 339.642C96.3278 333.879 102.622 331.74 108.176 335.496C109.981 336.707 111.295 338.36 112.305 340.353C127.267 337.85 140.5 341.289 151.455 351.913C152.739 351.411 153.912 350.836 155.154 350.463C160.089 348.968 167.116 353.041 166.313 360.526C166.17 361.864 165.733 363.18 165.249 364.461C164.503 366.446 163.059 367.824 161.141 368.708C160.495 369.008 159.838 369.242 159.28 369.466C159.116 371.82 159.264 374.163 158.75 376.346C156.556 385.639 151.776 393.142 142.96 397.504C136.101 400.902 128.813 401.97 121.285 400.605C113.562 399.211 106.195 396.724 99.376 392.731C95.7937 390.624 92.7256 387.978 90.3534 384.543C85.6069 377.704 85.0342 370.386 87.8873 362.715C89.3446 358.792 91.7041 355.359 94.3595 352.16C94.701 351.74 95.0425 351.32 95.3852 350.884C95.4365 350.855 95.4247 350.788 95.4225 350.821ZM124.505 398.727C127.012 398.591 129.54 398.636 131.997 398.266C141.956 396.826 149.526 391.95 153.938 382.663C156.153 378.004 157.261 373.202 156.044 368.056C154.878 363.111 153.003 358.446 149.779 354.491C146.845 350.868 143.413 347.786 139.009 345.917C133.202 343.44 127.189 342.018 120.895 342.038C116.262 342.042 111.744 342.745 107.541 344.817C99.4564 348.819 93.7251 355.122 90.2599 363.325C87.2088 370.538 88.0834 377.532 92.8468 383.895C94.6651 386.323 96.909 388.303 99.4559 389.944C103.575 392.598 108.046 394.455 112.692 395.913C116.55 397.136 120.411 398.31 124.505 398.727ZM109.903 341.105C108.914 338.801 107.31 337.309 105.152 336.451C100.949 334.761 96.7133 337.061 95.746 341.495C95.2601 343.745 95.5343 345.933 96.2545 348.086C96.3917 348.474 96.6304 348.819 96.7475 349.024C97.6119 348.411 98.3911 347.841 99.1353 347.302C98.5467 344.911 98.8109 342.777 100.834 341.341C103.186 339.649 105.465 340.433 107.536 342.057C108.331 341.734 109.024 341.454 109.903 341.105ZM158.606 366.888C162.305 366.161 163.429 363.233 163.792 360.399C164.21 357.241 162.767 354.61 160.005 353.234C157.576 352.013 154.719 352.224 152.899 353.821C153.329 354.476 153.759 355.147 154.219 355.853C156.36 355.772 158.23 356.297 159.153 358.366C160.131 360.587 159.611 362.621 157.977 364.38C158.181 365.215 158.389 366.002 158.606 366.888Z" fill="black"></path><path d="M124.506 398.726C120.411 398.309 116.551 397.119 112.692 395.912C108.03 394.452 103.575 392.597 99.4564 389.943C96.9094 388.302 94.6644 386.338 92.8472 383.894C88.0838 377.531 87.2092 370.537 90.2603 363.324C93.7256 355.121 99.4743 348.803 107.541 344.816C111.744 342.744 116.261 342.058 120.896 342.037C127.206 342.018 133.219 343.44 139.01 345.916C143.414 347.784 146.846 350.867 149.78 354.489C153.003 358.444 154.878 363.11 156.044 368.055C157.262 373.201 156.154 378.003 153.938 382.662C149.51 391.948 141.956 396.825 131.998 398.264C129.524 398.634 126.997 398.588 124.506 398.726ZM114.435 378.98C112.456 379.088 110.731 379.559 109.254 380.704C107.985 381.7 107.159 382.94 107.483 384.655C107.805 386.386 109.046 387.196 110.592 387.649C111.059 387.78 111.528 387.895 112.141 388.053C111.743 389.52 111.712 390.898 112.746 392.088C113.856 393.365 115.252 393.38 116.709 392.989C116.838 393.491 116.91 393.874 117.049 394.229C117.757 396.086 119.445 396.614 120.949 395.323C121.736 394.639 122.267 393.624 122.871 392.73C123.165 392.291 123.316 391.775 123.545 391.315C124.132 391.389 124.618 391.488 125.108 391.523C127.432 391.652 129.179 390.411 129.619 388.339C129.863 387.206 129.578 386.101 128.916 385.233C128.028 384.071 126.93 383.09 125.955 382.003C125.634 381.652 125.15 381.29 125.112 380.893C124.974 379.339 123.946 378.544 122.714 378.063C121.402 377.561 120.013 377.217 118.631 377.006C116.843 376.733 115.315 377.201 114.435 378.98ZM137.826 381.404C139.376 381.562 140.87 381.337 142.323 380.765C147.715 378.612 151.914 372.137 151.58 366.346C151.396 363.097 150.103 360.443 146.968 358.992C146.028 358.565 145.089 358.137 144.11 357.806C142.712 357.347 141.322 356.79 139.888 356.624C135.601 356.127 131.871 357.312 129.188 360.903C125.236 366.197 125.719 371.981 129.582 376.884C131.667 379.495 134.451 381.036 137.826 381.404ZM122.727 362.604C122.991 359.533 122.496 357.215 121.232 355.089C120.497 353.855 119.62 352.758 118.082 352.437C117.742 352.364 117.434 352.063 117.137 351.845C114.338 349.826 111.27 349.053 107.864 349.833C102.822 350.976 98.3861 355.907 97.762 361.071C97.5279 363.01 97.6591 364.892 98.5878 366.65C102.904 374.707 114.813 376.87 120.719 368.296C122.019 366.382 122.579 364.253 122.727 362.604Z" fill="#7EFBFF"></path><path d="M109.906 341.106C109.027 341.455 108.318 341.734 107.557 342.043C105.485 340.419 103.222 339.653 100.854 341.327C98.8314 342.763 98.5672 344.897 99.1558 347.288C98.4116 347.827 97.6161 348.396 96.768 349.01C96.6521 348.789 96.4134 348.443 96.275 348.072C95.5548 345.919 95.2643 343.73 95.7665 341.481C96.7327 337.063 100.969 334.747 105.172 336.438C107.313 337.31 108.916 338.819 109.906 341.106Z" fill="#7EFBFF"></path><path d="M158.608 366.892C158.391 366.006 158.199 365.22 157.978 364.384C159.597 362.624 160.133 360.591 159.155 358.37C158.233 356.285 156.362 355.776 154.221 355.856C153.776 355.168 153.33 354.496 152.9 353.825C154.722 352.211 157.578 352.017 160.006 353.238C162.752 354.629 164.195 357.244 163.794 360.403C163.43 363.253 162.306 366.165 158.608 366.892Z" fill="#7EFBFF"></path><path d="M114.436 378.986C115.334 377.193 116.861 376.741 118.584 377.009C119.965 377.221 121.354 377.564 122.666 378.067C123.914 378.548 124.927 379.342 125.064 380.896C125.102 381.293 125.586 381.656 125.907 382.007C126.9 383.078 127.997 384.075 128.868 385.237C129.531 386.105 129.815 387.209 129.571 388.342C129.131 390.414 127.368 391.655 125.061 391.526C124.57 391.492 124.099 391.41 123.498 391.318C123.284 391.796 123.116 392.31 122.824 392.733C122.235 393.629 121.704 394.643 120.901 395.326C119.396 396.634 117.709 396.089 117.001 394.232C116.862 393.877 116.805 393.512 116.661 392.993C115.204 393.384 113.809 393.368 112.698 392.091C111.666 390.885 111.696 389.507 112.093 388.056C111.48 387.898 111.01 387.8 110.544 387.652C109 387.183 107.759 386.373 107.435 384.658C107.111 382.943 107.937 381.703 109.206 380.707C110.716 379.564 112.44 379.11 114.436 378.986ZM125.505 389.405C126.781 389.478 127.738 388.477 127.311 387.067C126.646 384.835 123.807 382.895 121.513 383.277C119.07 383.681 116.997 383.01 115.096 381.53C114.816 381.313 114.442 381.024 114.129 381.035C112.499 381.085 111.001 381.589 109.894 382.858C109.053 383.835 109.326 385.103 110.564 385.485C111.465 385.761 112.485 385.751 113.444 385.653C114.123 385.586 114.803 385.256 115.433 384.938C116.863 384.233 118.046 384.464 119.115 385.623C119.818 386.378 120.572 387.105 121.381 387.753C122.453 388.633 123.64 389.291 125.505 389.405ZM117.161 386.538C116.3 386.872 115.745 387.063 115.204 387.272C114.037 387.749 113.394 389.199 113.958 390.29C114.145 390.664 114.64 391.11 115.016 391.136C115.36 391.16 115.932 390.724 116.073 390.356C116.481 389.218 116.746 388.02 117.161 386.538ZM119.341 388.727C118.751 390.592 118.212 392.197 119.184 394.04C120.631 393.073 121.101 391.759 121.385 390.283C120.747 389.779 120.153 389.343 119.341 388.727Z" fill="black"></path><path d="M137.826 381.408C134.45 381.057 131.666 379.515 129.599 376.889C125.735 371.986 125.253 366.202 129.204 360.908C131.886 357.333 135.601 356.131 139.904 356.629C141.338 356.795 142.745 357.353 144.126 357.811C145.106 358.126 146.046 358.554 146.984 358.997C150.103 360.447 151.396 363.101 151.596 366.352C151.93 372.142 147.732 378.618 142.34 380.771C140.87 381.342 139.377 381.549 137.826 381.408ZM139.405 358.598C133.423 358.147 128.823 362.13 128.457 367.839C128.174 372.354 131.024 376.94 135.208 378.678C137.97 379.824 140.641 379.683 143.159 377.986C146.575 375.661 148.769 372.479 149.383 368.398C149.809 365.586 149.309 362.873 146.685 361.161C144.439 359.673 141.902 358.839 139.405 358.598Z" fill="black"></path><path d="M122.727 362.608C122.579 364.257 122.019 366.387 120.704 368.283C114.813 376.858 102.889 374.694 98.5723 366.637C97.6425 364.896 97.5113 363.014 97.7466 361.059C98.3706 355.894 102.806 350.963 107.848 349.82C111.255 349.04 114.322 349.813 117.122 351.833C117.419 352.051 117.727 352.351 118.066 352.424C119.605 352.746 120.481 353.842 121.216 355.076C122.496 357.22 122.991 359.538 122.727 362.608ZM120.672 361.922C120.796 358.037 119.801 354.172 114.291 352.144C112.128 351.352 109.942 351.133 107.71 351.799C103.885 352.928 101.543 355.639 100.208 359.226C98.7539 363.101 99.5991 366.052 102.744 368.769C103.597 369.502 104.568 370.178 105.586 370.66C112.49 373.903 120.093 369.489 120.672 361.922Z" fill="black"></path><path d="M125.504 389.404C123.639 389.29 122.453 388.632 121.381 387.752C120.589 387.089 119.818 386.378 119.115 385.622C118.029 384.462 116.846 384.231 115.433 384.938C114.803 385.255 114.123 385.585 113.444 385.653C112.486 385.734 111.465 385.761 110.564 385.484C109.326 385.102 109.053 383.834 109.894 382.858C110.985 381.587 112.482 381.084 114.129 381.035C114.442 381.024 114.816 381.313 115.096 381.529C116.996 383.026 119.07 383.68 121.513 383.276C123.807 382.894 126.646 384.834 127.311 387.066C127.738 388.476 126.781 389.477 125.504 389.404Z" fill="#F4D9A7"></path><path d="M117.159 386.535C116.745 388.001 116.479 389.215 116.054 390.368C115.914 390.72 115.358 391.157 114.997 391.148C114.621 391.122 114.141 390.694 113.939 390.302C113.375 389.195 114.018 387.761 115.185 387.284C115.743 387.06 116.298 386.869 117.159 386.535Z" fill="white"></path><path d="M119.338 388.722C120.15 389.338 120.742 389.79 121.398 390.279C121.113 391.771 120.628 393.068 119.197 394.036C118.209 392.192 118.764 390.588 119.338 388.722Z" fill="white"></path><path d="M139.406 358.595C141.903 358.836 144.441 359.67 146.702 361.159C149.31 362.87 149.811 365.583 149.4 368.397C148.786 372.478 146.592 375.659 143.176 377.984C140.675 379.682 137.987 379.822 135.225 378.676C131.042 376.938 128.192 372.352 128.475 367.837C128.825 362.127 133.424 358.144 139.406 358.595ZM140.388 364.283C138.636 364.21 136.952 365.735 136.879 367.472C136.816 369.324 138.252 370.87 140.071 370.932C141.941 370.98 143.519 369.563 143.594 367.777C143.684 366.025 142.156 364.374 140.388 364.283Z" fill="white"></path><path d="M120.672 361.921C120.094 369.488 112.489 373.918 105.588 370.642C104.57 370.16 103.598 369.484 102.746 368.751C99.6007 366.034 98.7555 363.083 100.209 359.208C101.56 355.639 103.903 352.911 107.712 351.781C109.943 351.115 112.13 351.334 114.292 352.126C119.801 354.171 120.796 358.036 120.672 361.921ZM113.661 361.151C113.727 359.743 112.284 357.818 111.12 357.786C109.465 357.72 108.07 359.101 107.979 360.885C107.903 362.441 109.057 363.787 110.578 363.893C112.115 364.001 113.586 362.69 113.661 361.151Z" fill="white"></path><path d="M140.386 364.28C142.139 364.353 143.682 366.022 143.609 367.775C143.533 369.56 141.955 370.978 140.086 370.929C138.249 370.883 136.813 369.337 136.894 367.469C136.95 365.732 138.634 364.206 140.386 364.28Z" fill="black"></path><path d="M113.659 361.149C113.585 362.688 112.096 363.997 110.576 363.891C109.055 363.784 107.901 362.438 107.977 360.883C108.067 359.115 109.462 357.734 111.118 357.784C112.281 357.832 113.74 359.758 113.659 361.149Z" fill="black"></path><path d="M103.303 250.633C102.731 251.859 102.344 252.65 101.976 253.462C98.7463 260.656 92.9658 264.225 85.346 265.133C79.9847 265.771 74.8273 264.884 70.0939 262.392C59.1033 256.638 50.2314 248.714 44.6156 237.396C38.8609 225.834 35.3049 213.745 34.397 200.828C33.3897 186.268 36.3287 172.646 44.365 160.491C53.7961 146.213 67.2146 138.134 84.513 137.513C94.2944 137.165 103.15 140.024 110.545 146.792C114.755 150.651 117.455 155.475 119.686 160.616C122.571 167.264 123.718 174.258 123.546 181.452C123.474 184.154 123.108 186.874 122.61 189.546C122.207 191.68 120.882 193.36 118.68 193.946C116.001 194.654 113.271 195.262 110.531 195.732C109.288 195.957 107.929 195.901 106.676 195.716C103.957 195.331 102.018 193.813 101.234 191.109C100.762 189.499 100.469 187.842 100.018 186.214C99.1147 182.976 98.1922 179.737 97.1687 176.55C96.7209 175.155 96.0171 173.801 95.3092 172.505C92.9414 168.211 89.171 166.428 84.4092 167.127C76.7938 168.25 71.0151 172.072 67.8035 179.287C65.8404 183.688 64.6029 188.295 63.8224 193.05C62.5714 200.636 62.1772 208.223 63.2586 215.875C63.8812 220.339 65.1015 224.612 67.4396 228.495C68.6274 230.447 70.0031 232.218 71.9166 233.54C77.5824 237.461 85.0735 235.609 88.0401 229.39C89.3413 226.657 90.2283 223.72 91.3785 220.918C92.0833 219.195 92.7727 217.413 93.7406 215.825C95.3492 213.152 97.822 211.767 100.983 211.677C105.843 211.53 110.695 211.207 115.485 212.34C116.539 212.589 117.604 212.956 118.584 213.414C120.244 214.192 121.338 215.535 121.776 217.337C123.945 226.156 125.62 235.056 126.058 244.123C126.165 246.487 125.858 248.919 125.384 251.243C124.792 254.142 122.944 256.058 119.961 256.667C117.234 257.236 114.51 257.747 111.77 258.217C110.962 258.355 110.089 258.314 109.26 258.197C107.252 257.94 105.761 256.979 105.045 254.962C104.572 253.663 104.001 252.357 103.303 250.633ZM60.0059 201.119C60.1509 199.045 60.1783 196.983 60.4589 194.918C61.2486 188.917 62.6698 183.076 65.2541 177.59C68.9147 169.803 75.2879 165.555 83.6159 164.267C90.4078 163.223 95.3269 165.846 98.4809 171.987C99.5943 174.168 100.524 176.473 101.236 178.821C102.279 182.282 103.064 185.823 103.967 189.333C104.626 191.892 105.524 192.695 108.168 192.763C112.31 192.857 116.032 191.423 119.495 189.251C120.473 188.637 120.795 187.647 120.868 186.601C120.979 184.739 121.033 182.854 121.027 180.984C121.026 171.538 118.399 162.863 113.447 154.863C111.698 152.034 109.512 149.583 106.85 147.547C100.177 142.445 92.5384 140.275 84.2948 140.633C68.5897 141.307 56.2981 148.588 47.4419 161.329C39.4282 172.882 36.3915 185.952 37.2001 200.011C37.9499 212.683 41.4058 224.532 46.9789 235.906C52.2464 246.635 60.56 254.188 70.8804 259.779C74.2964 261.614 77.9854 262.612 81.8624 262.591C91.157 262.521 97.0204 258.88 100.167 250.921C100.617 249.783 101.068 248.627 101.517 247.49C101.873 246.58 102.538 246.256 103.509 246.305C104.478 246.373 104.77 246.919 105.043 247.756C105.72 249.77 106.536 251.755 107.272 253.754C107.729 255.013 108.665 255.566 109.945 255.636C110.528 255.657 111.126 255.738 111.678 255.64C114.342 255.145 117.008 254.61 119.659 254.017C121.341 253.648 122.453 252.498 122.705 250.841C123.06 248.548 123.457 246.22 123.325 243.932C122.853 235.641 121.239 227.524 119.39 219.43C118.871 217.115 117.601 215.78 115.315 215.328C114.624 215.182 113.936 214.997 113.221 214.909C109.089 214.405 104.959 214.428 100.809 214.722C98.7346 214.869 97.1719 215.773 96.2125 217.517C95.3194 219.149 94.6313 220.912 93.9266 222.635C92.7944 225.457 91.8326 228.35 90.5688 231.105C88.8704 234.784 85.9201 237.149 81.9974 238.101C76.1722 239.525 71.2435 237.875 67.2906 233.412C64.4926 230.256 62.7886 226.495 61.6088 222.478C59.5678 215.461 59.3661 208.319 60.0059 201.119Z" fill="black"></path><path d="M60.0063 201.114C59.3665 208.314 59.5682 215.456 61.6106 222.454C62.7904 226.47 64.4944 230.231 67.2924 233.387C71.2453 237.851 76.1727 239.519 81.9992 238.077C85.9233 237.105 88.8929 234.742 90.5706 231.081C91.8344 228.326 92.7768 225.431 93.9284 222.61C94.6331 220.887 95.3018 219.123 96.2143 217.492C97.1737 215.748 98.7545 214.865 100.811 214.698C104.96 214.404 109.091 214.381 113.223 214.884C113.918 214.972 114.606 215.156 115.317 215.303C117.603 215.755 118.873 217.09 119.392 219.405C121.242 227.48 122.855 235.617 123.327 243.907C123.459 246.195 123.061 248.543 122.707 250.817C122.436 252.472 121.323 253.622 119.661 253.992C117.01 254.586 114.345 255.101 111.68 255.615C111.128 255.713 110.51 255.631 109.947 255.611C108.665 255.56 107.731 254.989 107.274 253.73C106.537 251.731 105.722 249.746 105.045 247.731C104.771 246.914 104.479 246.348 103.51 246.28C102.541 246.213 101.876 246.536 101.519 247.465C101.069 248.602 100.618 249.759 100.169 250.896C97.0222 258.855 91.1588 262.496 81.8642 262.567C77.9872 262.588 74.2775 261.608 70.8822 259.754C60.5618 254.164 52.2483 246.61 46.9807 235.881C41.4063 224.527 37.9503 212.678 37.2019 199.986C36.3739 185.926 39.4093 172.876 47.4437 161.304C56.2999 148.564 68.5915 141.283 84.2966 140.609C92.5402 140.25 100.198 142.422 106.852 147.522C109.514 149.558 111.701 151.99 113.449 154.839C118.382 162.837 121.026 171.533 121.029 180.959C121.035 182.829 120.981 184.714 120.87 186.576C120.797 187.623 120.474 188.613 119.497 189.226C116.034 191.399 112.311 192.833 108.17 192.738C105.525 192.689 104.628 191.867 103.969 189.309C103.066 185.799 102.3 182.259 101.238 178.796C100.526 176.448 99.5961 174.143 98.4827 171.962C95.3287 165.821 90.4096 163.199 83.6177 164.243C75.2897 165.53 68.9165 169.778 65.2559 177.565C62.6716 183.052 61.2504 188.892 60.4607 194.894C60.1981 196.979 60.1514 199.04 60.0063 201.114Z" fill="#7EFBFF"></path></svg> 